<svg width="112" height="112" viewBox="0 0 112 112" fill="none" xmlns="http://www.w3.org/2000/svg">
<g clip-path="url(#clip0_720_2671)">
<path d="M56 112C86.9279 112 112 86.9279 112 56C112 25.0721 86.9279 0 56 0C25.0721 0 0 25.0721 0 56C0 86.9279 25.0721 112 56 112Z" fill="url(#paint0_linear_720_2671)"/>
<g filter="url(#filter0_d_720_2671)">
<path d="M72.2619 85.5312H39.7381C37.7424 85.5312 35.8284 84.7384 34.4172 83.3272C33.0059 81.916 32.2131 80.002 32.2131 78.0063V72.9312C32.2155 68.2079 34.0934 63.6789 37.4341 60.3398C40.7748 57.0007 45.3048 55.125 50.0281 55.125H61.9719C66.6963 55.125 71.2273 57.0016 74.5682 60.3421C77.9091 63.6826 79.7863 68.2134 79.7869 72.9378V78.0128C79.7851 80.0074 78.9916 81.9198 77.5805 83.3296C76.1695 84.7393 74.2565 85.5312 72.2619 85.5312Z" fill="white" fill-opacity="0.5"/>
<path d="M56.0001 51.8131C62.9987 51.8131 68.6723 46.1396 68.6723 39.1409C68.6723 32.1423 62.9987 26.4688 56.0001 26.4688C49.0014 26.4688 43.3279 32.1423 43.3279 39.1409C43.3279 46.1396 49.0014 51.8131 56.0001 51.8131Z" fill="white" fill-opacity="0.5"/>
</g>
</g>
<defs>
<filter id="filter0_d_720_2671" x="30.2131" y="24.4688" width="59.5737" height="71.0625" filterUnits="userSpaceOnUse" color-interpolation-filters="sRGB">
<feFlood flood-opacity="0" result="BackgroundImageFix"/>
<feColorMatrix in="SourceAlpha" type="matrix" values="0 0 0 0 0 0 0 0 0 0 0 0 0 0 0 0 0 0 127 0" result="hardAlpha"/>
<feOffset dx="4" dy="4"/>
<feGaussianBlur stdDeviation="3"/>
<feComposite in2="hardAlpha" operator="out"/>
<feColorMatrix type="matrix" values="0 0 0 0 0.638889 0 0 0 0 0.729167 0 0 0 0 0.958333 0 0 0 0.14 0"/>
<feBlend mode="normal" in2="BackgroundImageFix" result="effect1_dropShadow_720_2671"/>
<feBlend mode="normal" in="SourceGraphic" in2="effect1_dropShadow_720_2671" result="shape"/>
</filter>
<linearGradient id="paint0_linear_720_2671" x1="16.4019" y1="16.4019" x2="95.5981" y2="95.5981" gradientUnits="userSpaceOnUse">
<stop stop-color="#E1E9FF"/>
<stop offset="1" stop-color="#CEDCFF"/>
</linearGradient>
<clipPath id="clip0_720_2671">
<rect width="112" height="112" fill="white"/>
</clipPath>
</defs>
</svg>
