<svg width="681" height="960" viewBox="0 0 681 960" fill="none" xmlns="http://www.w3.org/2000/svg">
<path fill-rule="evenodd" clip-rule="evenodd" d="M71.2115 979.5L106.444 979.5L55.8772 910.5L2.13488 910.5L71.2115 979.5ZM107.507 979.5L142.838 979.5L104.903 910.5L56.9402 910.5L107.507 979.5ZM143.806 979.5L179.181 979.5L150.745 910.5L105.871 910.5L143.806 979.5ZM180.11 979.5L215.494 979.5L194.733 910.5L151.674 910.5L180.11 979.5ZM216.42 979.5L251.786 979.5L237.597 910.5L195.659 910.5L216.42 979.5ZM252.732 979.5L288.07 979.5L279.791 910.5L238.543 910.5L252.732 979.5ZM289.045 979.5L324.354 979.5L321.632 910.5L280.767 910.5L289.045 979.5ZM325.351 979.5L360.648 979.5L363.37 910.5L322.629 910.5L325.351 979.5ZM361.645 979.5L396.954 979.5L405.233 910.5L364.367 910.5L361.645 979.5ZM397.93 979.5L433.267 979.5L447.457 910.5L406.208 910.5L397.93 979.5ZM434.213 979.5L469.58 979.5L490.341 910.5L448.402 910.5L434.213 979.5ZM470.506 979.5L505.889 979.5L534.326 910.5L491.266 910.5L470.506 979.5ZM506.818 979.5L542.193 979.5L580.128 910.5L535.255 910.5L506.818 979.5ZM543.161 979.5L578.492 979.5L629.059 910.5L581.096 910.5L543.161 979.5ZM579.555 979.5L614.788 979.5L683.865 910.5L630.122 910.5L579.555 979.5ZM614.913 980L614.913 980.5L71.0874 980.5L71.0874 979.998L70.9397 980.478L-910.148 0.478246L-910 -0.000452292L-910 -0.499781L1596 -0.5L1596 -0.000366198L1596.15 0.478027L615.06 980.478L614.913 980ZM753.942 840.5L684.866 909.5L630.855 909.5L681.422 840.5L753.942 840.5ZM680.359 840.5L629.792 909.5L581.646 909.5L619.581 840.5L680.359 840.5ZM618.613 840.5L580.678 909.5L535.667 909.5L564.103 840.5L618.613 840.5ZM563.174 840.5L534.738 909.5L491.567 909.5L512.328 840.5L563.174 840.5ZM511.402 840.5L490.642 909.5L448.608 909.5L462.797 840.5L511.402 840.5ZM461.851 840.5L447.662 909.5L406.328 909.5L414.607 840.5L461.851 840.5ZM413.631 840.5L405.353 909.5L364.407 909.5L367.129 840.5L413.631 840.5ZM366.132 840.5L363.41 909.5L322.589 909.5L319.867 840.5L366.132 840.5ZM318.87 840.5L321.592 909.5L280.647 909.5L272.368 840.5L318.87 840.5ZM271.393 840.5L279.671 909.5L238.337 909.5L224.148 840.5L271.393 840.5ZM223.202 840.5L237.392 909.5L195.358 909.5L174.597 840.5L223.202 840.5ZM173.671 840.5L194.432 909.5L151.262 909.5L122.825 840.5L173.671 840.5ZM121.896 840.5L150.333 909.5L105.321 909.5L67.3865 840.5L121.896 840.5ZM66.418 840.5L104.353 909.5L56.2073 909.5L5.64025 840.5L66.418 840.5ZM4.57738 840.5L55.1443 909.5L1.13378 909.5L-67.9428 840.5L4.57738 840.5ZM-68.9439 839.5L3.84447 839.5L-46.7224 770.5L-138.021 770.5L-68.9439 839.5ZM4.90746 839.5L65.8683 839.5L27.9332 770.5L-45.6596 770.5L4.90746 839.5ZM66.8367 839.5L121.484 839.5L93.0477 770.5L28.9016 770.5L66.8367 839.5ZM122.413 839.5L173.371 839.5L152.61 770.5L93.9765 770.5L122.413 839.5ZM174.296 839.5L222.997 839.5L208.807 770.5L153.535 770.5L174.296 839.5ZM223.942 839.5L271.273 839.5L262.994 770.5L209.753 770.5L223.942 839.5ZM272.248 839.5L318.831 839.5L316.109 770.5L263.97 770.5L272.248 839.5ZM319.828 839.5L366.171 839.5L368.894 770.5L317.105 770.5L319.828 839.5ZM367.168 839.5L413.751 839.5L422.03 770.5L369.89 770.5L367.168 839.5ZM414.727 839.5L462.057 839.5L476.246 770.5L423.005 770.5L414.727 839.5ZM463.003 839.5L511.703 839.5L532.464 770.5L477.192 770.5L463.003 839.5ZM512.629 839.5L563.587 839.5L592.023 770.5L533.39 770.5L512.629 839.5ZM564.515 839.5L619.162 839.5L657.097 770.5L592.952 770.5L564.515 839.5ZM620.131 839.5L681.092 839.5L731.659 770.5L658.066 770.5L620.131 839.5ZM682.155 839.5L754.943 839.5L824.02 770.5L732.722 770.5L682.155 839.5ZM894.098 700.5L825.021 769.5L733.454 769.5L784.021 700.5L894.098 700.5ZM782.958 700.5L732.391 769.5L658.616 769.5L696.551 700.5L782.958 700.5ZM695.582 700.5L657.647 769.5L593.364 769.5L621.8 700.5L695.582 700.5ZM620.872 700.5L592.435 769.5L533.691 769.5L554.451 700.5L620.872 700.5ZM553.526 700.5L532.765 769.5L477.397 769.5L491.587 700.5L553.526 700.5ZM490.641 700.5L476.452 769.5L423.125 769.5L431.404 700.5L490.641 700.5ZM430.428 700.5L422.15 769.5L369.93 769.5L372.652 700.5L430.428 700.5ZM371.655 700.5L368.933 769.5L317.066 769.5L314.344 700.5L371.655 700.5ZM313.347 700.5L316.069 769.5L263.85 769.5L255.571 700.5L313.347 700.5ZM254.596 700.5L262.874 769.5L209.548 769.5L195.359 700.5L254.596 700.5ZM194.413 700.5L208.602 769.5L153.234 769.5L132.474 700.5L194.413 700.5ZM131.548 700.5L152.309 769.5L93.5643 769.5L65.1279 700.5L131.548 700.5ZM64.1992 700.5L92.6356 769.5L28.3519 769.5L-9.58315 700.5L64.1992 700.5ZM-10.5517 700.5L27.3834 769.5L-46.3925 769.5L-96.9595 700.5L-10.5517 700.5ZM-98.0222 700.5L-47.4553 769.5L-139.022 769.5L-208.098 700.5L-98.0222 700.5ZM-209.099 699.5L-98.7552 699.5L-149.322 630.5L-278.176 630.5L-209.099 699.5ZM-97.6923 699.5L-11.1013 699.5L-49.0364 630.5L-148.259 630.5L-97.6923 699.5ZM-10.133 699.5L63.787 699.5L35.3506 630.5L-48.068 630.5L-10.133 699.5ZM64.7158 699.5L131.247 699.5L110.486 630.5L36.2794 630.5L64.7158 699.5ZM132.173 699.5L194.207 699.5L180.018 630.5L111.412 630.5L132.173 699.5ZM195.153 699.5L254.476 699.5L246.197 630.5L180.964 630.5L195.153 699.5ZM255.451 699.5L313.307 699.5L310.585 630.5L247.173 630.5L255.451 699.5ZM314.304 699.5L371.695 699.5L374.417 630.5L311.582 630.5L314.304 699.5ZM372.692 699.5L430.548 699.5L438.827 630.5L375.414 630.5L372.692 699.5ZM431.524 699.5L490.847 699.5L505.036 630.5L439.802 630.5L431.524 699.5ZM491.792 699.5L553.827 699.5L574.587 630.5L505.981 630.5L491.792 699.5ZM554.752 699.5L621.284 699.5L649.72 630.5L575.513 630.5L554.752 699.5ZM622.213 699.5L696.132 699.5L734.067 630.5L650.649 630.5L622.213 699.5ZM697.1 699.5L783.691 699.5L834.258 630.5L735.035 630.5L697.1 699.5ZM784.754 699.5L895.099 699.5L964.175 630.5L835.321 630.5L784.754 699.5ZM1034.25 560.5L965.176 629.5L836.054 629.5L886.621 560.5L1034.25 560.5ZM885.558 560.5L834.991 629.5L735.585 629.5L773.52 560.5L885.558 560.5ZM772.552 560.5L734.617 629.5L651.061 629.5L679.498 560.5L772.552 560.5ZM678.569 560.5L650.132 629.5L575.814 629.5L596.575 560.5L678.569 560.5ZM595.649 560.5L574.888 629.5L506.187 629.5L520.376 560.5L595.649 560.5ZM519.43 560.5L505.241 629.5L439.922 629.5L448.201 560.5L519.43 560.5ZM447.225 560.5L438.947 629.5L375.453 629.5L378.176 560.5L447.225 560.5ZM377.179 560.5L374.456 629.5L311.543 629.5L308.82 560.5L377.179 560.5ZM307.823 560.5L310.546 629.5L247.053 629.5L238.774 560.5L307.823 560.5ZM237.799 560.5L246.077 629.5L180.758 629.5L166.569 560.5L237.799 560.5ZM165.623 560.5L179.812 629.5L111.111 629.5L90.3502 560.5L165.623 560.5ZM89.4245 560.5L110.185 629.5L35.8672 629.5L7.43075 560.5L89.4245 560.5ZM6.50204 560.5L34.9384 629.5L-48.6177 629.5L-86.5528 560.5L6.50204 560.5ZM-87.5213 560.5L-49.5862 629.5L-148.992 629.5L-199.559 560.5L-87.5213 560.5ZM-200.622 560.5L-150.055 629.5L-279.177 629.5L-348.254 560.5L-200.622 560.5ZM-349.255 559.5L-201.355 559.5L-251.922 490.5L-418.331 490.5L-349.255 559.5ZM-200.292 559.5L-88.071 559.5L-126.006 490.5L-250.859 490.5L-200.292 559.5ZM-87.1025 559.5L6.08981 559.5L-22.3466 490.5L-125.038 490.5L-87.1025 559.5ZM7.01864 559.5L89.1237 559.5L68.3629 490.5L-21.4179 490.5L7.01864 559.5ZM90.0493 559.5L165.418 559.5L151.228 490.5L69.2884 490.5L90.0493 559.5ZM166.363 559.5L237.679 559.5L229.4 490.5L152.174 490.5L166.363 559.5ZM238.654 559.5L307.784 559.5L305.062 490.5L230.376 490.5L238.654 559.5ZM308.781 559.5L377.218 559.5L379.94 490.5L306.059 490.5L308.781 559.5ZM378.215 559.5L447.345 559.5L455.624 490.5L380.937 490.5L378.215 559.5ZM448.321 559.5L519.636 559.5L533.825 490.5L456.599 490.5L448.321 559.5ZM520.582 559.5L595.95 559.5L616.711 490.5L534.771 490.5L520.582 559.5ZM596.876 559.5L678.981 559.5L707.417 490.5L617.636 490.5L596.876 559.5ZM679.91 559.5L773.101 559.5L811.036 490.5L708.346 490.5L679.91 559.5ZM774.07 559.5L886.291 559.5L936.858 490.5L812.005 490.5L774.07 559.5ZM887.354 559.5L1035.25 559.5L1104.33 490.5L937.921 490.5L887.354 559.5ZM1174.41 420.5L1105.33 489.5L938.654 489.5L989.221 420.5L1174.41 420.5ZM988.158 420.5L937.591 489.5L812.555 489.5L850.49 420.5L988.158 420.5ZM849.521 420.5L811.586 489.5L708.758 489.5L737.195 420.5L849.521 420.5ZM736.266 420.5L707.83 489.5L617.937 489.5L638.698 420.5L736.266 420.5ZM637.772 420.5L617.012 489.5L534.977 489.5L549.166 420.5L637.772 420.5ZM548.22 420.5L534.031 489.5L456.719 489.5L464.998 420.5L548.22 420.5ZM464.022 420.5L455.744 489.5L380.977 489.5L383.699 420.5L464.022 420.5ZM382.702 420.5L379.98 489.5L306.019 489.5L303.297 420.5L382.702 420.5ZM302.3 420.5L305.022 489.5L230.256 489.5L221.977 420.5L302.3 420.5ZM221.002 420.5L229.28 489.5L151.969 489.5L137.779 420.5L221.002 420.5ZM136.834 420.5L151.023 489.5L68.9876 489.5L48.2268 420.5L136.834 420.5ZM47.3011 420.5L68.062 489.5L-21.83 489.5L-50.2665 420.5L47.3011 420.5ZM-51.1951 420.5L-22.7587 489.5L-125.587 489.5L-163.522 420.5L-51.1951 420.5ZM-164.491 420.5L-126.556 489.5L-251.592 489.5L-302.159 420.5L-164.491 420.5ZM-303.221 420.5L-252.655 489.5L-419.332 489.5L-488.409 420.5L-303.221 420.5ZM-489.41 419.5L-303.954 419.5L-354.521 350.5L-558.487 350.5L-489.41 419.5ZM-302.892 419.5L-165.04 419.5L-202.976 350.5L-353.459 350.5L-302.892 419.5ZM-164.072 419.5L-51.6073 419.5L-80.0438 350.5L-202.007 350.5L-164.072 419.5ZM-50.6786 419.5L47.0003 419.5L26.2394 350.5L-79.1152 350.5L-50.6786 419.5ZM47.9259 419.5L136.628 419.5L122.439 350.5L27.165 350.5L47.9259 419.5ZM137.574 419.5L220.882 419.5L212.603 350.5L123.385 350.5L137.574 419.5ZM221.857 419.5L302.261 419.5L299.538 350.5L213.579 350.5L221.857 419.5ZM303.257 419.5L382.742 419.5L385.464 350.5L300.535 350.5L303.257 419.5ZM383.738 419.5L464.142 419.5L472.421 350.5L386.461 350.5L383.738 419.5ZM465.118 419.5L548.426 419.5L562.615 350.5L473.396 350.5L465.118 419.5ZM549.371 419.5L638.073 419.5L658.834 350.5L563.56 350.5L549.371 419.5ZM638.999 419.5L736.678 419.5L765.115 350.5L659.76 350.5L638.999 419.5ZM737.607 419.5L850.071 419.5L888.006 350.5L766.043 350.5L737.607 419.5ZM851.039 419.5L988.89 419.5L1039.46 350.5L888.974 350.5L851.039 419.5ZM989.953 419.5L1175.41 419.5L1244.49 350.5L1040.52 350.5L989.953 419.5ZM1314.56 280.5L1245.49 349.5L1041.25 349.5L1091.82 280.5L1314.56 280.5ZM1090.76 280.5L1040.19 349.5L889.524 349.5L927.459 280.5L1090.76 280.5ZM926.491 280.5L888.556 349.5L766.456 349.5L794.892 280.5L926.491 280.5ZM793.963 280.5L765.527 349.5L660.061 349.5L680.821 280.5L793.963 280.5ZM679.896 280.5L659.135 349.5L563.766 349.5L577.955 280.5L679.896 280.5ZM577.009 280.5L562.82 349.5L473.516 349.5L481.795 280.5L577.009 280.5ZM480.819 280.5L472.541 349.5L386.5 349.5L389.222 280.5L480.819 280.5ZM388.226 280.5L385.503 349.5L300.496 349.5L297.773 280.5L388.226 280.5ZM296.777 280.5L299.499 349.5L213.459 349.5L205.18 280.5L296.777 280.5ZM204.205 280.5L212.483 349.5L123.179 349.5L108.99 280.5L204.205 280.5ZM108.044 280.5L122.233 349.5L26.8642 349.5L6.10333 280.5L108.044 280.5ZM5.17767 280.5L25.9385 349.5L-79.5273 349.5L-107.964 280.5L5.17767 280.5ZM-108.892 280.5L-80.456 349.5L-202.557 349.5L-240.492 280.5L-108.892 280.5ZM-241.46 280.5L-203.525 349.5L-354.191 349.5L-404.758 280.5L-241.46 280.5ZM-405.821 280.5L-355.254 349.5L-559.488 349.5L-628.564 280.5L-405.821 280.5ZM-629.565 279.5L-406.554 279.5L-457.121 210.5L-698.642 210.5L-629.565 279.5ZM-405.491 279.5L-242.01 279.5L-279.945 210.5L-456.058 210.5L-405.491 279.5ZM-241.042 279.5L-109.305 279.5L-137.741 210.5L-278.977 210.5L-241.042 279.5ZM-108.376 279.5L4.87689 279.5L-15.884 210.5L-136.812 210.5L-108.376 279.5ZM5.80255 279.5L107.838 279.5L93.6492 210.5L-14.9583 210.5L5.80255 279.5ZM108.784 279.5L204.085 279.5L195.806 210.5L94.5951 210.5L108.784 279.5ZM205.06 279.5L296.737 279.5L294.015 210.5L196.781 210.5L205.06 279.5ZM297.734 279.5L388.265 279.5L390.987 210.5L295.012 210.5L297.734 279.5ZM389.262 279.5L480.939 279.5L489.218 210.5L391.984 210.5L389.262 279.5ZM481.915 279.5L577.215 279.5L591.404 210.5L490.193 210.5L481.915 279.5ZM578.161 279.5L680.197 279.5L700.958 210.5L592.35 210.5L578.161 279.5ZM681.122 279.5L794.375 279.5L822.812 210.5L701.883 210.5L681.122 279.5ZM795.304 279.5L927.04 279.5L964.975 210.5L823.741 210.5L795.304 279.5ZM928.009 279.5L1091.49 279.5L1142.06 210.5L965.944 210.5L928.009 279.5ZM1092.55 279.5L1315.56 279.5L1384.64 210.5L1143.12 210.5L1092.55 279.5ZM1454.72 140.5L1385.64 209.5L1143.85 209.5L1194.42 140.5L1454.72 140.5ZM1193.36 140.5L1142.79 209.5L966.494 209.5L1004.43 140.5L1193.36 140.5ZM1003.46 140.5L965.525 209.5L824.153 209.5L852.589 140.5L1003.46 140.5ZM851.66 140.5L823.224 209.5L702.184 209.5L722.945 140.5L851.66 140.5ZM722.019 140.5L701.258 209.5L592.556 209.5L606.745 140.5L722.019 140.5ZM605.799 140.5L591.61 209.5L490.313 209.5L498.592 140.5L605.799 140.5ZM497.617 140.5L489.338 209.5L392.023 209.5L394.746 140.5L497.617 140.5ZM393.749 140.5L391.027 209.5L294.972 209.5L292.25 140.5L393.749 140.5ZM291.253 140.5L293.975 209.5L196.661 209.5L188.383 140.5L291.253 140.5ZM187.408 140.5L195.686 209.5L94.3895 209.5L80.2004 140.5L187.408 140.5ZM79.2544 140.5L93.4437 209.5L-15.2591 209.5L-36.02 140.5L79.2544 140.5ZM-36.9456 140.5L-16.1848 209.5L-137.225 209.5L-165.661 140.5L-36.9456 140.5ZM-166.59 140.5L-138.153 209.5L-279.526 209.5L-317.461 140.5L-166.59 140.5ZM-318.43 140.5L-280.495 209.5L-456.791 209.5L-507.358 140.5L-318.43 140.5ZM-508.421 140.5L-457.854 209.5L-699.643 209.5L-768.72 140.5L-508.421 140.5ZM-769.721 139.5L-509.154 139.5L-559.721 70.5002L-838.797 70.5002L-769.721 139.5ZM-508.091 139.5L-318.98 139.5L-356.915 70.5002L-558.658 70.5002L-508.091 139.5ZM-318.011 139.5L-167.002 139.5L-195.438 70.5002L-355.946 70.5002L-318.011 139.5ZM-166.073 139.5L-37.2464 139.5L-58.0073 70.5001L-194.51 70.5002L-166.073 139.5ZM-36.3208 139.5L79.0489 139.5L64.8597 70.5001L-57.0816 70.5001L-36.3208 139.5ZM79.9947 139.5L187.288 139.5L179.009 70.5001L65.8056 70.5001L79.9947 139.5ZM188.263 139.5L291.214 139.5L288.491 70.5001L179.984 70.5001L188.263 139.5ZM292.21 139.5L393.788 139.5L396.511 70.5001L289.488 70.5001L292.21 139.5ZM394.785 139.5L497.736 139.5L506.015 70.5001L397.507 70.5001L394.785 139.5ZM498.712 139.5L606.005 139.5L620.194 70.5001L506.99 70.5001L498.712 139.5ZM606.95 139.5L722.32 139.5L743.081 70.5001L621.14 70.5001L606.95 139.5ZM723.246 139.5L852.073 139.5L880.509 70.5001L744.007 70.5001L723.246 139.5ZM853.001 139.5L1004.01 139.5L1041.94 70.5L881.438 70.5001L853.001 139.5ZM1004.98 139.5L1194.09 139.5L1244.66 70.5L1042.91 70.5L1004.98 139.5ZM1195.15 139.5L1455.72 139.5L1524.8 70.5L1245.72 70.5L1195.15 139.5ZM1594.87 0.5L1525.8 69.5L1246.45 69.5L1297.02 0.500026L1594.87 0.5ZM1295.96 0.500026L1245.39 69.5L1043.46 69.5L1081.4 0.500045L1295.96 0.500026ZM1080.43 0.500045L1042.49 69.5L881.85 69.5001L910.286 0.50006L1080.43 0.500045ZM909.358 0.50006L880.921 69.5001L744.307 69.5001L765.068 0.500073L909.358 0.50006ZM764.143 0.500073L743.382 69.5001L621.345 69.5001L635.534 0.500084L764.143 0.500073ZM634.589 0.500084L620.399 69.5001L507.11 69.5001L515.389 0.500094L634.589 0.500084ZM514.414 0.500095L506.135 69.5001L397.547 69.5001L400.269 0.500105L514.414 0.500095ZM399.272 0.500105L396.55 69.5001L289.449 69.5001L286.726 0.500114L399.272 0.500105ZM285.73 0.500115L288.452 69.5001L179.864 69.5001L171.586 0.500125L285.73 0.500115ZM170.61 0.500125L178.889 69.5001L65.5999 69.5001L51.4108 0.500135L170.61 0.500125ZM50.4649 0.500135L64.6541 69.5001L-57.3824 69.5001L-78.1433 0.500146L50.4649 0.500135ZM-79.0689 0.500146L-58.3081 69.5001L-194.922 69.5002L-223.358 0.500159L-79.0689 0.500146ZM-224.287 0.500159L-195.85 69.5002L-356.496 69.5002L-394.431 0.500174L-224.287 0.500159ZM-395.399 0.500174L-357.464 69.5002L-559.391 69.5002L-609.958 0.500193L-395.399 0.500174ZM-611.02 0.500193L-560.453 69.5002L-839.798 69.5002L-908.875 0.500219L-611.02 0.500193Z" fill="url(#paint0_linear_704_3063)"/>
<defs>
<linearGradient id="paint0_linear_704_3063" x1="343" y1="980.5" x2="343" y2="-0.49989" gradientUnits="userSpaceOnUse">
<stop stop-color="white" stop-opacity="0.15"/>
<stop offset="1" stop-color="#ABB3E4" stop-opacity="0.09"/>
</linearGradient>
</defs>
</svg>
