<svg width="425" height="311" viewBox="0 0 425 311" fill="none" xmlns="http://www.w3.org/2000/svg">
<path d="M458.931 167.132C489.662 136.44 489.662 86.679 458.931 55.9874C428.2 25.2957 378.375 25.2957 347.644 55.9874C316.913 86.6791 316.913 136.44 347.644 167.132C378.375 197.823 428.2 197.823 458.931 167.132Z" fill="#5269F0"/>
<path d="M403.133 190.444C385.194 190.393 367.806 184.248 353.827 173.019C339.848 161.79 330.111 146.145 326.215 128.657C316.775 86.2169 343.673 44.0154 386.178 34.5878C428.683 25.1602 470.933 52.0289 480.368 94.4686C482.616 104.577 482.848 115.029 481.051 125.227C479.254 135.425 475.464 145.17 469.896 153.905C464.329 162.64 457.093 170.194 448.602 176.136C440.111 182.079 430.532 186.293 420.41 188.537C414.738 189.801 408.945 190.44 403.133 190.444ZM403.439 33.2047C397.668 33.2087 391.915 33.8427 386.282 35.0954C344.062 44.4609 317.346 86.3774 326.718 128.548C329.931 142.943 337.149 156.14 347.542 166.618C357.935 177.096 371.079 184.43 385.462 187.776C399.845 191.121 414.881 190.342 428.84 185.528C442.798 180.713 455.112 172.06 464.363 160.564C473.614 149.067 479.426 135.196 481.13 120.546C482.834 105.895 480.36 91.0624 473.994 77.7545C467.628 64.4465 457.628 53.2047 445.146 45.3232C432.664 37.4417 418.207 33.241 403.439 33.2047Z" fill="#263238"/>
<path d="M400.302 186.171C395.971 186 391.663 185.45 387.428 184.529L387.542 184.011C391.747 184.922 396.023 185.466 400.322 185.637L400.302 186.171Z" fill="#263238"/>
<path d="M384.285 183.772C382.086 183.197 379.887 182.508 377.75 181.726L377.926 181.244C380.053 182.016 382.236 182.7 384.415 183.275L384.285 183.772Z" fill="#263238"/>
<path d="M375.048 180.684C358.016 173.735 344.146 160.76 336.09 144.24C328.035 127.72 326.358 108.814 331.381 91.1377L331.9 91.2776C326.91 108.831 328.574 127.606 336.574 144.011C344.573 160.417 358.347 173.302 375.26 180.203L375.048 180.684Z" fill="#263238"/>
<path d="M335.006 82.4878L334.529 82.2806C336.422 77.864 338.734 73.6386 341.433 69.6621L341.863 69.9522C339.182 73.9022 336.886 78.1 335.006 82.4878Z" fill="#263238"/>
<path d="M392.625 76.6602L400.649 78.3178L403.382 81.1512L406.946 81.7003L408.082 85.0777L407.252 87.362L404.819 88.4757L398.865 87.5019L398.704 86.7767L401.515 84.8135L399.575 81.2341L394.249 80.5037L391.412 78.0743L392.625 76.6602Z" fill="#8595F0"/>
<path d="M404.85 88.7451L398.626 87.7091L398.388 86.642L401.157 84.715L399.389 81.4516L394.114 80.7316L391.002 78.0846L392.485 76.3545L400.737 78.0639L403.466 80.887L407.096 81.4464L408.31 85.0724L407.444 87.5536L404.85 88.7451ZM399.072 87.2791L404.778 88.2063L407.039 87.1703L407.802 85.0672L406.764 81.9282L403.268 81.4102L400.525 78.5715L392.745 76.9606L391.796 78.0639L394.389 80.2706L399.773 81.0113L401.889 84.9119L399.026 86.9061L399.072 87.2791Z" fill="#263238"/>
<path d="M457.277 150.594L450.918 149.522L443.232 148.548L437.583 149.802L432.049 149.879L426.499 152.469L423.258 153.381L421.256 153.826L417.91 156.862L414.591 159.126L409 157.1L409.14 151.718L405.758 151.133L402.127 151.941L401.214 150.423L400.851 147.066L399.171 145.512L396.697 146.44L396.344 148.444L393.284 149.315L389.809 146.637L387.734 142.493L389.337 136.795L394.726 136.012L396.469 136.965L398.652 136.479L401.022 134.236L403.559 134.438L408.092 139.353L409.332 138.887L408.035 134.78L406.453 132.837L406.048 129.299L412.148 124.891L411.562 117.95L413.953 114.935L415.39 110.221L417.132 109.454L420.716 105.792L420.576 104.295L417.703 105.124L416.831 103.788L414.824 104.233L411.889 105.647L412.817 102.959L418.797 99.7213L419.892 97.758L423.33 101.198L425.338 102.472L427.729 101.182L426.116 99.0375L421.671 97.1624L416.204 93.2152L410.955 91.1432L406.417 91.3867L403.745 89.6876L400.665 89.6047L400.462 90.4128L401.271 95.7741L402.407 97.4317L402.06 103.622L397.77 101.519V98.851L393.533 97.8772L391.458 96.2403L391.36 91.4851L395.794 86.4864L395.187 82.0368L393.191 82.6584L391.552 81.3012L390.395 78.7112L389.083 78.8148L389 81.8917L387.076 82.6584L384.747 76.4838L383.066 75.9244L380.271 75.4064L377.677 77.5094L382.091 80.1564L383.507 83.0935L375.852 79.6332L370.203 75.7275L368.741 70.8894L363.678 70.4854L360.566 73.6607C359.801 74.3952 358.996 75.0869 358.155 75.7327C357.325 76.3025 353.938 77.4317 353.938 77.4317L353.896 80.6899L349.747 81.8037L350.556 83.7254L357.543 83.3214L361.858 86.3776L363.274 92.749L362.527 98.8407L364.228 104.767L361.116 114.821L362.978 128.356L366.318 135.639L369.985 140.944L372.802 140.7L371.246 137.986L369.301 136.126L367.506 132.293L369.062 131.563L373.072 137.566L376.184 142.99L377.221 147.724L381.614 151.143L388.829 154.324L398.875 154.769L402.397 156.841L405.234 159.271L408.963 160.545L413.216 160.747L417.184 159.675C417.184 159.675 417.407 161.539 417.609 162.446C417.812 163.352 415.95 167.02 415.95 167.02L414.752 171.107L417.101 174.79L421.479 175.541L428.424 180.11L431.219 180.628L431.826 183.358L432.428 184.559C446.099 179.124 457.962 169.954 466.66 158.1L466.463 156.758L469.398 146.745L466.665 145.632L457.277 150.594Z" fill="#8595F0"/>
<path d="M432.34 184.897L431.613 183.42L431.043 180.856L428.32 180.338L421.416 175.795L416.982 175.034L414.508 171.159L415.737 166.958C416.458 165.529 417.526 163.115 417.392 162.514C417.236 161.814 417.075 160.582 417.003 160.017L413.279 161.022L408.911 160.799L405.099 159.478L402.257 157.033L398.823 155.008L388.746 154.542L381.484 151.335L377.013 147.854L375.976 143.068L372.864 137.681L368.99 131.895L367.864 132.413L369.534 135.935L371.49 137.821L373.253 140.887L369.882 141.177L366.132 135.754L362.745 128.357L360.857 114.775L363.969 104.741L362.278 98.836L363.03 92.7391L361.64 86.5231L357.491 83.5757L350.406 83.9849L349.405 81.6229L353.658 80.4884L353.699 77.2406L353.871 77.1836C353.907 77.1836 357.231 76.0544 358.02 75.5156C358.851 74.8817 359.645 74.2021 360.401 73.4799L363.601 70.2217L368.964 70.6516L370.442 75.5726L376.023 79.4265L382.983 82.5656L381.91 80.3486L377.242 77.5462L380.214 75.1323L383.128 75.6814L384.939 76.3185L387.216 82.3222L388.74 81.685L388.823 78.5459L390.556 78.4113L391.759 81.1308L393.242 82.3584L395.369 81.6798L396.033 86.5542L391.583 91.5633L391.681 96.0958L393.626 97.6239L397.999 98.6288V101.343L401.8 103.203L402.117 97.5047L400.991 95.8161L400.182 90.3874L400.452 89.3514L403.813 89.3929L406.479 91.0867L410.991 90.8433L416.354 93.0189L421.8 96.9453L426.271 98.8464L428.118 101.265L425.327 102.773L423.149 101.385L419.949 98.1833L418.984 99.9134L413.03 103.141L412.335 105.145L414.767 103.98L416.951 103.498L417.812 104.824L420.804 103.959L420.986 105.886L417.236 109.688L415.602 110.413L414.155 115.075L411.826 118.007L412.418 124.99L406.323 129.398L406.702 132.713L408.258 134.682L409.632 139.022L408.019 139.639L403.434 134.666L401.121 134.48L398.782 136.697L396.427 137.215L394.674 136.256L389.56 137.049L388.03 142.498L390.027 146.482L393.341 149.035L396.116 148.248L396.437 146.28L399.197 145.244L401.069 146.958L401.437 150.356L402.221 151.662L405.737 150.885L409.368 151.517L409.228 156.935L414.554 158.805L417.77 156.614L421.136 153.558L423.211 153.097L426.442 152.19L432.059 149.6L437.563 149.522L443.232 148.284L450.955 149.263L457.236 150.325L466.68 145.352L469.746 146.601L466.758 156.785L466.966 158.173L466.904 158.261C458.173 170.155 446.267 179.355 432.547 184.808L432.34 184.897ZM432.111 183.275L432.594 184.239C446.096 178.82 457.816 169.746 466.437 158.038L466.245 156.748V156.691L469.118 146.901L466.712 145.922L457.319 150.864L450.872 149.776L443.232 148.813L437.568 150.061L432.096 150.139L426.634 152.687L423.336 153.625L421.38 154.06L418.092 157.049L414.632 159.411L408.719 157.297L408.86 151.952L405.748 151.434L401.972 152.273L400.934 150.486L400.576 147.228L399.088 145.86L396.904 146.684L396.578 148.683L393.232 149.631L389.601 146.792L387.49 142.576L389.161 136.614L394.783 135.764L396.515 136.712L398.538 136.261L400.939 133.987L403.688 134.21L408.175 139.069L409.02 138.753L407.812 134.925L406.204 132.905L405.773 129.139L411.878 124.731L411.292 117.831L413.719 114.775L415.177 109.999L416.982 109.201L420.452 105.658L420.348 104.596L417.589 105.389L416.712 104.042L414.907 104.446L411.437 106.119L412.604 102.742L418.605 99.4939L419.829 97.2975L423.496 100.96L425.348 102.141L427.34 101.058L425.944 99.2349L421.52 97.3545L416.079 93.4229L410.893 91.3509L406.328 91.5944L403.668 89.9109L400.867 89.8383L400.727 90.3926L401.52 95.6451L402.672 97.3286L402.298 104L397.511 101.649V99.0225L393.362 98.0486L391.183 96.3341L391.074 91.3561L395.514 86.3885L394.964 82.3636L393.159 82.9386L391.365 81.4519L390.26 78.9552L389.358 79.0225L389.28 82.0321L386.951 83.0111L384.57 76.7019L383.014 76.1528L380.374 75.6348L378.149 77.4789L382.299 79.9756L384.057 83.6016L375.758 79.8461L369.991 75.8679L368.544 71.1126L363.777 70.7345L360.743 73.8425C359.966 74.5777 359.148 75.2694 358.295 75.9145C357.543 76.4325 354.903 77.339 354.192 77.5825L354.151 80.8562L350.095 81.9388L350.717 83.4203L357.615 83.0215L362.086 86.1864L363.533 92.7029L362.786 98.7842L364.493 104.736L361.381 114.806L363.227 128.274L366.552 135.526L370.11 140.664L372.371 140.473L371.033 138.147L369.062 136.23L367.148 132.195L369.145 131.263L373.295 137.437L376.453 142.944L377.491 147.606L381.785 150.947L388.922 154.091L398.984 154.537L402.568 156.655L405.4 159.079L409.031 160.328L413.206 160.525L417.428 159.385L417.464 159.68C417.464 159.68 417.687 161.54 417.884 162.431C418.081 163.322 416.52 166.549 416.199 167.176L415.058 171.102L417.283 174.588L421.639 175.36L428.548 179.903L431.458 180.452L432.111 183.275Z" fill="#263238"/>
<path d="M460.244 74.4637L457.469 71.4489L454.025 68.0094L452.085 62.7103L455.488 62.529L455.265 60.6642L452.853 61.0112L454.642 59.6541L456.546 57.8929L456.141 56.0747L453.32 53.6505L451.981 49.8328C438.505 39.236 421.932 33.3241 404.782 32.9959C387.633 32.6677 370.845 37.9412 356.972 48.0146L361.837 50.0555L360.017 53.8991L356.713 55.3961L357.444 60.3845L356.095 61.2599L354.716 63.6634L355.629 66.9009L358.808 66.5797L358.222 69.9571L361.334 69.2682L365.125 61.3583L365.017 58.3125L370.042 56.8155L370.831 54.3446L376.017 52.6248L375.877 49.408L379.664 48.372C379.664 48.372 382.075 46.3 382.625 46.1913C383.175 46.0825 385.924 46.414 385.924 46.414L389.145 47.968L392.973 47.1237L395.81 44.3886L400.084 43.824C400.773 44.0908 401.517 44.1885 402.252 44.1089C403.164 43.9069 405.618 42.0369 405.618 42.0369L411.593 44.1711L414.186 45.3262L414.793 48.0561L417.609 47.8126L418.154 45.9737L420.747 46.5383L420.887 48.0354L415.742 50.7082L419.731 54.0234L427.106 56.2094L430.654 59.2449L434.741 58.7269L435.26 56.7015L436.639 56.0125L431.089 53.4225L428.092 53.7075L430.265 52.4487L427.391 49.8587L430.472 48.9885L434.969 50.2835L436.852 54.4534L439.383 56.3752L442.194 61.2703L446.862 63.2956L448.2 69.3044L452.998 71.1071L453.262 73.148V75.6344L455.083 78.6699L455.814 80.2239L459.035 80.084L459.803 76.6652L460.244 74.4637Z" fill="#8595F0"/>
<path d="M455.628 80.4928L454.824 78.7782L452.977 75.7065V73.1476L452.734 71.2931L447.952 69.4957L446.634 63.492L442.013 61.4874L439.186 56.5457L436.639 54.6135L434.783 50.4695L430.472 49.2263L427.931 49.9515L430.727 52.4845L429.259 53.3185L431.126 53.1424L437.225 55.9914L435.452 56.8772L434.933 58.9492L430.55 59.5138L426.961 56.4369L419.549 54.2198L415.255 50.6508L420.592 47.8795L420.488 46.7451L418.336 46.2737L417.817 48.0556L414.596 48.3302L413.968 45.5071L411.536 44.4089L405.675 42.3369C405.156 42.7358 403.18 44.1914 402.319 44.383C401.558 44.4801 400.784 44.3857 400.068 44.1085L395.919 44.6576L393.092 47.3771L389.104 48.2628L385.841 46.6622C384.792 46.507 383.733 46.4326 382.672 46.4395C382.366 46.5068 380.986 47.5791 379.825 48.5685L379.726 48.6254L376.137 49.5993L376.277 52.8057L371.049 54.5462L370.26 57.017L365.297 58.4985L365.38 61.42L361.511 69.5008L357.911 70.2986L358.502 66.8746L355.447 67.1854L354.446 63.6371L355.909 61.0782L357.159 60.2649L356.428 55.2403L359.82 53.6863L361.49 50.1743L356.448 48.0608L356.822 47.7915C370.74 37.6827 387.583 32.3904 404.789 32.7196C421.995 33.0487 438.622 38.9812 452.142 49.6148L452.199 49.6614L453.543 53.4843L456.39 55.9241L456.847 57.9961L454.834 59.866L453.797 60.6327L455.472 60.3944L455.763 62.7927L452.433 62.9689L454.238 67.8847L457.64 71.2879L460.508 74.3959L460.016 76.7321L459.201 80.3581L455.628 80.4928ZM453.496 75.5666L455.28 78.5399L455.949 79.9644L458.797 79.8349L459.528 76.613L459.964 74.541L457.277 71.6246L453.781 68.0971L451.707 62.4664L455.187 62.2851L455.026 60.959L451.893 61.42L454.487 59.4568L456.276 57.794L455.923 56.24L453.086 53.7951L451.753 49.9878C438.384 39.498 421.965 33.628 404.967 33.2608C387.97 32.8937 371.312 38.0493 357.501 47.952L362.169 49.9204L360.188 54.0955L356.977 55.5511L357.704 60.5187L356.298 61.42L355.006 63.6785L355.826 66.6L359.13 66.2685L358.554 69.5993L361.147 69.0243L364.851 61.2854L364.747 58.1152L369.83 56.5975L370.618 54.168L375.727 52.469L375.582 49.2419L379.513 48.1696C380.032 47.7448 381.977 46.0976 382.542 45.9681C383.108 45.8386 385.654 46.1494 385.929 46.1857L386.012 46.2116L389.155 47.7656L392.828 46.916L395.67 44.1758L400.094 43.5905H400.156C400.797 43.8412 401.489 43.9354 402.174 43.865C402.879 43.7096 404.767 42.3421 405.436 41.8293L405.551 41.7412L411.697 43.8961L414.389 45.1082L414.975 47.7448L417.386 47.5376L417.952 45.6366L420.986 46.2944L421.162 48.1541L416.209 50.7441L419.84 53.7795L427.257 56.0018L430.711 58.9647L434.513 58.4467L435.006 56.4835L436.012 55.9655L431.012 53.6293L426.863 54.023L429.814 52.3447L426.857 49.6666L430.436 48.6306L435.104 49.9826L437.008 54.1991L439.601 56.24L442.376 61.0833L447.075 63.1243L448.418 69.1123L453.237 70.915L453.517 73.1165L453.496 75.5666Z" fill="#263238"/>
<path d="M416.168 63.7985L402.957 61.1826L397.713 62.5398L397.205 66.2797L394.493 64.3994L390.686 66.202L391.655 72.2885L395.462 73.9306L397.065 69.942L400.405 72.071L407.153 75.7332L409.42 80.7682L415.493 85.7255L422.869 82.7521L422.08 80.0637L419.752 77.3339L417.765 70.1285L418.901 66.6268L416.168 63.7985Z" fill="#8595F0"/>
<path d="M415.452 86.0253L409.228 80.9282L406.951 75.9243L400.281 72.2983L397.169 70.3351L395.582 74.2771L391.401 72.4745L390.364 66.0564L394.487 64.1088L396.977 65.8337L397.449 62.3372L402.952 60.9023H403.009L416.297 63.5338L419.196 66.533L418.035 70.1072L419.985 77.1831L422.329 79.9647L423.185 82.8811L415.452 86.0253ZM409.632 80.5863L415.54 85.4089L422.552 82.5806L421.847 80.1668L419.502 77.3799L417.495 70.1279L418.605 66.7039L416.038 64.0414L402.967 61.4514L397.947 62.7464L397.428 66.735L394.477 64.6993L390.981 66.3517L391.883 72.1067L395.317 73.5882L396.935 69.5581L400.54 71.8477L407.345 75.5462L409.632 80.5863Z" fill="#263238"/>
<path d="M426.904 65.6162L424.004 65.4971L422.08 68.0249L424.533 73.0236L426.904 72.4952V65.6162Z" fill="#8595F0"/>
<path d="M424.388 73.334L421.795 68.009L423.896 65.248L427.179 65.3827V72.7176L424.388 73.334ZM422.386 68.0711L424.674 72.7331L426.634 72.298V65.8748L424.119 65.7712L422.386 68.0711Z" fill="#263238"/>
<path d="M406.007 142.86L405.441 143.746L411.271 144.171L414.025 146.238L417.573 145.834L418.403 143.549L414.051 143.751L406.007 142.86Z" fill="#8595F0"/>
<path d="M413.953 146.507L411.178 144.435L404.985 143.984L405.877 142.591L414.077 143.503L418.781 143.28L417.744 146.082L413.953 146.507ZM405.887 143.523L411.364 143.922L414.098 145.994L417.381 145.621L418.024 143.85L414.056 144.031L406.131 143.161L405.887 143.523Z" fill="#263238"/>
<path d="M423.004 142.721L419.415 144.658L420.286 145.994L425.027 144.943L425.618 143.285L424.015 143.829L423.004 142.721Z" fill="#8595F0"/>
<path d="M420.166 146.29L419.046 144.565L423.055 142.395L424.093 143.534L426.038 142.866L425.223 145.166L420.166 146.29ZM419.788 144.736L420.405 145.684L424.829 144.705L425.192 143.669L423.937 144.094L422.946 143.006L419.788 144.736Z" fill="#263238"/>
<path d="M347.176 274.687C346.967 274.687 346.756 274.685 346.543 274.682C342.854 274.619 340.256 272.749 339.329 269.526C337.542 269.295 335.528 268.507 333.434 266.952C328.849 263.547 329.387 258.23 331.953 254.471C333.802 251.764 336.887 249.767 339.691 250.503C339.689 248.814 340.013 245.918 342.042 244.259C343.801 242.821 346.383 242.657 349.716 243.771C351.248 244.281 352.462 244.91 353.425 245.588C356.068 242.865 360.171 241.489 364.264 244.098C368.256 246.645 369.779 250.174 369.948 253.169C371.907 253.255 373.798 254.162 375.395 255.854C378.627 259.277 377.923 264.487 373.602 269.125C369.694 273.32 363.484 276.141 359.664 273.108C359.176 272.719 358.746 272.308 358.37 271.884C355.891 273.709 352.026 274.687 347.176 274.687ZM341.016 269.582C341.665 271.327 343.17 273.045 346.571 273.104C351.377 273.164 355.152 272.311 357.433 270.616C356.078 268.394 355.971 265.963 356.637 264.161C357.141 262.798 358.066 262.021 359.016 261.997C359.545 262.011 360.513 262.303 361.062 264.09C361.741 266.307 361.379 268.498 360.04 270.26C359.891 270.457 359.728 270.65 359.555 270.834C359.869 271.191 360.234 271.539 360.657 271.875C363.574 274.196 369.041 271.698 372.435 268.054C375.388 264.884 377.412 260.298 374.236 256.934C372.749 255.359 371.249 254.792 369.913 254.733C369.876 255.095 369.819 255.443 369.743 255.773C369.078 258.717 367.056 260.753 364.467 261.086C362.609 261.315 362.074 260.357 361.923 259.931C361.378 258.387 362.984 255.899 365.499 254.383C366.439 253.817 367.403 253.45 368.364 253.278C368.225 250.713 366.9 247.656 363.405 245.428C359.945 243.218 356.716 244.523 354.653 246.599C356.682 248.558 357.043 250.653 357.102 251.471C357.237 253.333 356.507 254.946 355.241 255.581C354.219 256.092 353.027 255.873 351.971 254.978C349.73 253.079 350.486 249.463 352.404 246.806C351.578 246.239 350.532 245.709 349.211 245.266C346.433 244.341 344.363 244.409 343.056 245.476C340.808 247.306 341.335 251.578 341.34 251.621C341.379 251.921 341.241 252.219 340.985 252.384C340.728 252.549 340.399 252.555 340.137 252.396C337.89 251.028 334.981 252.851 333.269 255.357C331.126 258.495 330.64 262.907 334.386 265.688C336.043 266.92 337.619 267.608 339.017 267.886C338.688 264.598 339.956 261.02 341.903 260.118C342.414 259.882 343.739 259.505 345.001 261.111C346.802 263.401 346.797 266.063 344.992 267.895C344.074 268.823 342.693 269.463 341.016 269.582ZM358.969 263.573C358.859 263.573 358.445 263.848 358.129 264.703C357.746 265.742 357.59 267.613 358.617 269.503C358.669 269.44 358.72 269.375 358.77 269.309C359.81 267.941 360.075 266.295 359.54 264.549C359.291 263.737 358.992 263.558 358.969 263.573ZM342.854 261.479C342.725 261.479 342.631 261.523 342.574 261.55C341.443 262.072 340.225 265.087 340.634 268.032C342.019 267.997 343.137 267.519 343.856 266.79C345.089 265.539 345.048 263.736 343.748 262.082C343.364 261.593 343.064 261.479 342.854 261.479ZM368.29 254.902C367.51 255.096 366.837 255.423 366.323 255.733C364.21 257.006 363.231 258.864 363.423 259.409C363.46 259.514 363.759 259.585 364.262 259.52C366.171 259.275 367.677 257.706 368.192 255.428C368.23 255.259 368.263 255.083 368.29 254.902ZM353.632 247.815C351.983 250.146 351.705 252.676 353.003 253.778C353.394 254.11 353.979 254.453 354.523 254.171C355.071 253.897 355.616 252.969 355.516 251.584C355.47 250.952 355.191 249.368 353.632 247.815Z" fill="white" fill-opacity="0.1"/>
<path d="M251.176 71.1231C250.967 71.1231 250.756 71.1217 250.543 71.1182C246.854 71.0552 244.256 69.1851 243.329 65.9624C241.542 65.7313 239.528 64.9437 237.434 63.3887C232.849 59.9839 233.387 54.6664 235.953 50.9074C237.802 48.2007 240.887 46.2032 243.691 46.9397C243.689 45.2503 244.013 42.3545 246.042 40.6959C247.801 39.2578 250.383 39.0933 253.716 40.2072C255.248 40.7176 256.462 41.3464 257.425 42.0241C260.068 39.302 264.171 37.9255 268.264 40.5349C272.256 43.0813 273.779 46.6107 273.948 49.6058C275.907 49.6919 277.798 50.5986 279.395 52.2909C282.627 55.7138 281.923 60.9235 277.602 65.5612C273.694 69.7564 267.484 72.5773 263.664 69.5443C263.176 69.1557 262.746 68.744 262.37 68.3204C259.891 70.1457 256.026 71.1231 251.176 71.1231ZM245.016 66.0184C245.665 67.7631 247.17 69.482 250.571 69.5401C255.377 69.6003 259.152 68.7475 261.433 67.0525C260.078 64.8303 259.971 62.3994 260.637 60.5973C261.141 59.2348 262.066 58.4576 263.016 58.4331C263.545 58.4471 264.513 58.7398 265.062 60.5266C265.741 62.7432 265.379 64.9346 264.04 66.6961C263.891 66.8936 263.728 67.0861 263.555 67.271C263.869 67.6273 264.234 67.9753 264.657 68.3113C267.574 70.6323 273.041 68.1342 276.435 64.4907C279.388 61.3205 281.412 56.7346 278.236 53.3705C276.749 51.7952 275.249 51.228 273.913 51.1692C273.876 51.5312 273.819 51.8799 273.743 52.2096C273.078 55.1537 271.056 57.1897 268.467 57.5223C266.609 57.7519 266.074 56.7934 265.923 56.3678C265.378 54.8233 266.984 52.3357 269.499 50.8192C270.439 50.2535 271.403 49.8866 272.364 49.7144C272.225 47.1498 270.9 44.093 267.405 41.8645C263.945 39.6541 260.716 40.9599 258.653 43.0358C260.682 44.9947 261.043 47.0896 261.102 47.908C261.237 49.7697 260.507 51.3821 259.241 52.0171C258.219 52.5289 257.027 52.3098 255.971 51.4143C253.73 49.5155 254.486 45.8993 256.404 43.2423C255.578 42.6752 254.532 42.1452 253.211 41.7027C250.433 40.7778 248.363 40.8458 247.056 41.9121C244.808 43.7429 245.335 48.0144 245.34 48.0571C245.379 48.3575 245.241 48.6551 244.985 48.8203C244.728 48.9855 244.399 48.9911 244.137 48.8329C241.89 47.4641 238.981 49.2873 237.269 51.7938C235.126 54.9318 234.64 59.3433 238.386 62.125C240.043 63.3565 241.619 64.044 243.017 64.3227C242.688 61.0348 243.956 57.4565 245.903 56.5547C246.414 56.3187 247.739 55.9414 249.001 57.5475C250.802 59.8376 250.797 62.4995 248.992 64.3311C248.074 65.2595 246.693 65.8994 245.016 66.0184ZM262.969 60.0098C262.859 60.0098 262.445 60.2843 262.129 61.1399C261.746 62.1789 261.59 64.0496 262.617 65.9393C262.669 65.8763 262.72 65.8112 262.77 65.7453C263.81 64.378 264.075 62.732 263.54 60.9858C263.291 60.1737 262.992 59.9944 262.969 60.0098ZM246.854 57.9157C246.725 57.9157 246.631 57.9591 246.574 57.9864C245.443 58.5087 244.225 61.5235 244.634 64.469C246.019 64.4333 247.137 63.9558 247.856 63.227C249.089 61.9751 249.048 60.1723 247.748 58.5186C247.364 58.0292 247.064 57.9157 246.854 57.9157ZM272.29 51.3387C271.51 51.5326 270.837 51.8596 270.323 52.1697C268.21 53.4426 267.231 55.3 267.423 55.8454C267.46 55.9505 267.759 56.0212 268.262 55.9568C270.171 55.7117 271.677 54.1427 272.192 51.8645C272.23 51.695 272.263 51.5193 272.29 51.3387ZM257.632 44.2519C255.983 46.5826 255.705 49.1129 257.003 50.2149C257.394 50.5461 257.979 50.8899 258.523 50.6077C259.071 50.3333 259.616 49.4056 259.516 48.02C259.47 47.3885 259.191 45.8041 257.632 44.2519Z" fill="white" fill-opacity="0.1"/>
<path d="M226.02 279.696H226.014L222.185 279.683L226.241 276.898C226.694 276.587 226.812 275.963 226.505 275.506C226.196 275.045 225.577 274.931 225.13 275.239L219.658 278.995L219.78 272.522C219.791 271.968 219.356 271.512 218.809 271.501H218.802C218.259 271.494 217.811 271.932 217.8 272.484L217.693 278.197L214.347 274.521C213.975 274.117 213.351 274.087 212.948 274.464C212.547 274.838 212.522 275.474 212.891 275.88L216.334 279.661L209.993 279.639C209.446 279.638 209.002 280.084 209 280.637C208.999 281.188 209.434 281.636 209.976 281.643H209.986L215.77 281.663L211.251 284.766C210.799 285.078 210.68 285.701 210.988 286.159C211.177 286.441 211.483 286.593 211.794 286.598C211.991 286.601 212.189 286.545 212.363 286.425L217.606 282.825L217.484 289.347C217.472 289.901 217.908 290.357 218.455 290.368H218.461C219.004 290.375 219.452 289.936 219.464 289.384L219.579 283.225L223.146 287.143C223.338 287.353 223.598 287.462 223.86 287.466C224.104 287.469 224.35 287.382 224.544 287.201C224.946 286.826 224.971 286.191 224.601 285.784L220.867 281.682L226.007 281.701C226.554 281.703 226.998 281.255 227 280.701C227.002 280.151 226.567 279.703 226.02 279.696Z" fill="white" fill-opacity="0.14"/>
<path d="M53.6687 129.006H53.6637L50.5889 128.995L53.8463 126.803C54.2094 126.558 54.3046 126.067 54.0579 125.706C53.8097 125.344 53.3126 125.254 52.9537 125.496L48.5597 128.454L48.657 123.357C48.6661 122.92 48.3164 122.561 47.8771 122.553H47.8722C47.4358 122.547 47.0762 122.892 47.067 123.327L46.981 127.826L44.2939 124.931C43.9957 124.613 43.4944 124.589 43.1707 124.886C42.8485 125.18 42.8281 125.681 43.1249 126.001L45.8895 128.979L40.7975 128.961C40.3582 128.96 40.0014 129.311 40 129.747C39.9993 130.181 40.3483 130.534 40.784 130.539H40.7918L45.4369 130.555L41.8078 132.999C41.4447 133.244 41.3495 133.735 41.5963 134.095C41.7486 134.318 41.994 134.438 42.2436 134.441C42.4022 134.443 42.5609 134.399 42.7005 134.305L46.9112 131.47L46.8132 136.606C46.804 137.042 47.1537 137.401 47.593 137.41H47.5979C48.0337 137.415 48.394 137.07 48.4031 136.635L48.4955 131.785L51.3602 134.87C51.5146 135.035 51.7233 135.122 51.9341 135.124C52.1295 135.127 52.3276 135.059 52.4834 134.916C52.8056 134.621 52.8261 134.12 52.5293 133.8L49.5299 130.57L53.6581 130.585C54.0973 130.586 54.4541 130.234 54.4555 129.798C54.4569 129.364 54.1079 129.012 53.6687 129.006Z" fill="white" fill-opacity="0.14"/>
<path d="M115.129 95.5368C114.942 95.5368 114.756 95.4857 114.584 95.3856C113.987 95.0369 112.262 92.5914 110.367 89.5073C106.214 90.2298 102.734 90.603 102.204 89.9603C101.971 89.6781 101.887 89.2048 102.225 88.784C102.964 87.8605 104.7 85.7125 106.805 83.2474C104.942 79.6746 103.589 76.4364 103.951 75.3638C104.126 74.8492 104.59 74.5636 105.138 74.6175C106.162 74.7365 109.196 75.9709 112.158 77.2731C114.947 74.3556 117.549 72.0249 118.829 71.9185C119.312 71.8674 119.632 72.062 119.813 72.2237C120.003 72.3918 120.1 72.6396 120.074 72.891C119.845 75.1335 119.55 77.8171 119.199 80.5357C126.391 84.0392 126.518 84.7372 126.589 85.1321C126.651 85.4745 126.426 85.917 126.114 86.0752C126.038 86.1137 122.451 87.0106 118.075 87.9677C117.355 91.9101 116.521 94.962 115.619 95.4171C115.462 95.4969 115.295 95.5368 115.129 95.5368ZM111.978 89.2146C113.254 91.3108 114.397 93.0142 115.05 93.7214C115.449 92.9078 115.914 90.9502 116.389 88.3317C114.934 88.6398 113.434 88.9416 111.978 89.2146ZM107.609 84.754C106.477 86.0829 105.341 87.4517 104.24 88.8092C105.394 88.7336 107.298 88.4564 109.503 88.0769C108.863 86.998 108.219 85.8715 107.609 84.754ZM108.703 83.4777C109.475 84.9186 110.311 86.4029 111.125 87.7905C112.924 87.4636 114.84 87.0911 116.667 86.7165C116.935 85.1104 117.201 83.3286 117.456 81.4529C115.854 80.6821 114.163 79.893 112.555 79.1719C111.342 80.4783 110.035 81.9395 108.703 83.4777ZM118.978 82.1937C118.784 83.6163 118.574 85.0264 118.352 86.3658C120.827 85.8435 122.994 85.3485 124.273 85.011C123.193 84.3375 121.243 83.3111 118.978 82.1937ZM105.491 76.3062C105.685 77.3592 106.648 79.5107 107.909 81.9647C108.911 80.8116 109.967 79.6235 111.017 78.4878C108.622 77.439 106.565 76.6094 105.491 76.3062ZM113.697 77.9599C114.752 78.436 115.749 78.8953 116.583 79.2888C116.961 79.4659 117.324 79.6389 117.675 79.8048C117.932 77.8122 118.175 75.7482 118.39 73.7101C117.429 74.2639 115.74 75.828 113.697 77.9599Z" fill="white" fill-opacity="0.14"/>
<path d="M322.129 204.765C321.942 204.765 321.756 204.714 321.584 204.614C320.987 204.265 319.262 201.82 317.367 198.736C313.214 199.458 309.734 199.831 309.204 199.189C308.971 198.907 308.887 198.433 309.225 198.013C309.964 197.089 311.7 194.941 313.805 192.476C311.942 188.903 310.589 185.665 310.951 184.592C311.126 184.078 311.59 183.792 312.138 183.846C313.162 183.965 316.196 185.199 319.158 186.502C321.947 183.584 324.549 181.253 325.829 181.147C326.312 181.096 326.632 181.291 326.813 181.452C327.003 181.62 327.1 181.868 327.074 182.119C326.845 184.362 326.55 187.046 326.199 189.764C333.391 193.268 333.518 193.966 333.589 194.361C333.651 194.703 333.426 195.145 333.114 195.304C333.038 195.342 329.451 196.239 325.075 197.196C324.355 201.139 323.521 204.191 322.619 204.646C322.462 204.725 322.295 204.765 322.129 204.765ZM318.978 198.443C320.254 200.539 321.397 202.243 322.05 202.95C322.449 202.136 322.914 200.179 323.389 197.56C321.934 197.868 320.434 198.17 318.978 198.443ZM314.609 193.983C313.477 195.311 312.341 196.68 311.24 198.038C312.394 197.962 314.298 197.685 316.503 197.305C315.863 196.226 315.219 195.1 314.609 193.983ZM315.703 192.706C316.475 194.147 317.311 195.631 318.125 197.019C319.924 196.692 321.84 196.32 323.667 195.945C323.935 194.339 324.201 192.557 324.456 190.681C322.854 189.911 321.163 189.122 319.555 188.4C318.342 189.707 317.035 191.168 315.703 192.706ZM325.978 191.422C325.784 192.845 325.574 194.255 325.352 195.594C327.827 195.072 329.994 194.577 331.273 194.24C330.193 193.566 328.243 192.54 325.978 191.422ZM312.491 185.535C312.685 186.588 313.648 188.739 314.909 191.193C315.911 190.04 316.967 188.852 318.017 187.716C315.622 186.668 313.565 185.838 312.491 185.535ZM320.697 187.188C321.752 187.665 322.749 188.124 323.583 188.517C323.961 188.694 324.324 188.867 324.675 189.033C324.932 187.041 325.175 184.977 325.39 182.939C324.429 183.492 322.74 185.057 320.697 187.188Z" fill="white" fill-opacity="0.14"/>
<path d="M98.1435 136.304L98.1252 136.29C95.7307 134.447 95.2936 131.012 97.1515 128.633C99.0002 126.265 102.45 125.825 104.842 127.651C106.021 128.558 106.762 129.847 106.946 131.294C107.13 132.738 106.736 134.17 105.837 135.321C103.986 137.688 100.535 138.129 98.1435 136.304ZM103.887 128.913C102.173 127.604 99.7215 127.918 98.4079 129.6C97.0873 131.291 97.3982 133.732 99.0989 135.042L99.1123 135.053C100.812 136.35 103.264 136.037 104.58 134.355C105.22 133.536 105.5 132.52 105.368 131.491C105.238 130.463 104.711 129.548 103.887 128.913Z" fill="white" fill-opacity="0.14"/>
<path d="M244.087 180.147C243.934 180.147 243.783 180.143 243.634 180.134C243.308 180.115 243.061 179.831 243.079 179.502C243.098 179.172 243.384 178.903 243.704 178.939C244.398 178.978 245.138 178.906 245.881 178.736C246.198 178.659 246.515 178.863 246.588 179.186C246.661 179.509 246.461 179.829 246.143 179.902C245.45 180.063 244.758 180.145 244.087 180.147ZM241.375 179.637C241.305 179.637 241.233 179.624 241.163 179.597C240.408 179.301 239.67 178.883 238.971 178.351C238.709 178.153 238.656 177.777 238.852 177.513C239.048 177.251 239.418 177.195 239.679 177.393C240.292 177.859 240.934 178.225 241.587 178.48C241.891 178.599 242.043 178.945 241.926 179.253C241.836 179.491 241.613 179.637 241.375 179.637ZM248.239 179.136C248.016 179.136 247.802 179.007 247.702 178.789C247.566 178.488 247.695 178.133 247.991 177.994C248.636 177.692 249.304 177.315 249.979 176.87C250.253 176.694 250.619 176.77 250.796 177.047C250.974 177.325 250.896 177.695 250.622 177.875C249.901 178.35 249.182 178.756 248.486 179.081C248.406 179.118 248.322 179.136 248.239 179.136ZM237.603 176.838C237.44 176.838 237.276 176.769 237.16 176.635C236.647 176.046 236.152 175.379 235.687 174.651C235.509 174.374 235.588 174.003 235.861 173.823C236.135 173.645 236.501 173.723 236.678 174.001C237.112 174.679 237.572 175.299 238.046 175.843C238.262 176.092 238.239 176.469 237.994 176.688C237.881 176.789 237.742 176.838 237.603 176.838ZM252.209 176.561C252.037 176.561 251.866 176.485 251.749 176.339C251.544 176.082 251.583 175.706 251.837 175.498C252.222 175.181 252.615 174.842 253.015 174.477C253.206 174.303 253.393 174.127 253.575 173.951C253.811 173.722 254.185 173.731 254.41 173.97C254.635 174.208 254.627 174.588 254.391 174.816C254.201 175.001 254.006 175.184 253.806 175.368C253.39 175.746 252.982 176.099 252.58 176.428C252.471 176.517 252.339 176.561 252.209 176.561ZM255.605 173.244C255.469 173.244 255.333 173.197 255.222 173.101C254.974 172.887 254.943 172.509 255.154 172.258C255.66 171.656 256.123 171.033 256.53 170.406C256.709 170.129 257.077 170.054 257.348 170.234C257.621 170.415 257.696 170.787 257.517 171.063C257.083 171.732 256.591 172.394 256.055 173.034C255.937 173.173 255.771 173.244 255.605 173.244ZM235.008 172.843C234.792 172.843 234.584 172.723 234.48 172.515C234.129 171.81 233.794 171.058 233.486 170.282C233.364 169.976 233.51 169.627 233.813 169.504C234.115 169.383 234.459 169.528 234.581 169.836C234.877 170.58 235.198 171.3 235.534 171.975C235.681 172.269 235.564 172.629 235.273 172.779C235.189 172.822 235.098 172.843 235.008 172.843ZM258.181 169.248C258.097 169.248 258.011 169.229 257.93 169.191C257.635 169.051 257.508 168.694 257.646 168.395C257.972 167.693 258.241 166.97 258.444 166.248C258.534 165.93 258.864 165.744 259.174 165.838C259.488 165.927 259.67 166.26 259.58 166.578C259.359 167.361 259.068 168.143 258.716 168.905C258.616 169.121 258.403 169.248 258.181 169.248ZM233.23 168.402C232.98 168.402 232.748 168.24 232.668 167.987C232.317 166.877 232.108 166.031 232.015 165.625C231.942 165.304 232.14 164.982 232.458 164.907C232.779 164.837 233.093 165.033 233.167 165.356C233.237 165.667 233.441 166.512 233.792 167.619C233.892 167.935 233.721 168.271 233.41 168.372C233.35 168.393 233.289 168.402 233.23 168.402ZM259.466 164.667C259.445 164.667 259.425 164.666 259.403 164.663C259.079 164.628 258.844 164.334 258.878 164.006C258.928 163.531 258.952 163.06 258.952 162.594C258.952 162.3 258.942 162.008 258.923 161.719C258.902 161.388 259.149 161.104 259.474 161.082C259.792 161.051 260.081 161.31 260.102 161.639C260.123 161.954 260.133 162.272 260.133 162.592C260.133 163.103 260.106 163.621 260.053 164.131C260.021 164.439 259.765 164.667 259.466 164.667ZM259.163 159.914C258.894 159.914 258.652 159.728 258.588 159.452C258.419 158.717 258.188 157.979 257.901 157.259C257.78 156.953 257.926 156.605 258.229 156.481C258.529 156.36 258.875 156.505 258.997 156.813C259.306 157.589 259.555 158.386 259.738 159.178C259.812 159.499 259.615 159.822 259.298 159.897C259.253 159.909 259.207 159.914 259.163 159.914ZM257.418 155.485C257.213 155.485 257.015 155.378 256.905 155.185C256.871 155.127 256.838 155.068 256.804 155.01C256.612 155.041 256.421 155.07 256.23 155.098C255.903 155.137 255.608 154.917 255.562 154.59C255.516 154.263 255.74 153.96 256.064 153.913C256.077 153.911 256.091 153.909 256.104 153.907C255.954 153.688 255.798 153.472 255.638 153.26C255.439 152.998 255.489 152.621 255.748 152.42C256.006 152.221 256.378 152.269 256.576 152.532C256.859 152.908 257.129 153.293 257.383 153.686C257.7 153.623 258.016 153.553 258.33 153.477C258.649 153.399 258.966 153.598 259.041 153.919C259.117 154.241 258.921 154.563 258.604 154.64C258.403 154.689 258.201 154.735 257.998 154.779C258.042 155.022 257.934 155.275 257.712 155.405C257.619 155.46 257.517 155.485 257.418 155.485ZM252.918 155.345C252.4 155.346 251.887 155.332 251.394 155.297C251.068 155.274 250.822 154.988 250.844 154.658C250.866 154.329 251.152 154.084 251.473 154.102C251.941 154.133 252.425 154.156 252.917 154.149C253.198 154.149 253.482 154.142 253.769 154.129C254.094 154.143 254.371 154.371 254.385 154.702C254.399 155.032 254.146 155.311 253.82 155.326C253.515 155.338 253.215 155.345 252.918 155.345ZM249.093 154.984C249.054 154.984 249.014 154.981 248.975 154.973C248.12 154.797 247.324 154.563 246.608 154.276C246.305 154.155 246.157 153.807 246.277 153.5C246.397 153.193 246.74 153.04 247.043 153.163C247.694 153.424 248.423 153.638 249.209 153.799C249.529 153.865 249.736 154.181 249.671 154.505C249.614 154.788 249.368 154.984 249.093 154.984ZM260.737 154.002C260.49 154.002 260.259 153.843 260.177 153.592C260.074 153.279 260.242 152.94 260.551 152.836C261.269 152.594 261.996 152.313 262.71 152.001C263.011 151.868 263.358 152.011 263.486 152.313C263.616 152.617 263.478 152.969 263.178 153.1C262.433 153.426 261.674 153.72 260.923 153.972C260.862 153.993 260.799 154.002 260.737 154.002ZM244.771 153.154C244.641 153.154 244.51 153.111 244.4 153.021C243.563 152.335 243.053 151.53 242.923 150.694C242.872 150.368 243.093 150.061 243.415 150.01C243.74 149.962 244.04 150.183 244.09 150.509C244.174 151.048 244.537 151.594 245.143 152.091C245.397 152.299 245.436 152.675 245.231 152.932C245.114 153.078 244.943 153.154 244.771 153.154ZM265.074 152.111C264.862 152.111 264.658 151.995 264.552 151.793C264.399 151.502 264.508 151.14 264.796 150.985C265.47 150.623 266.142 150.224 266.794 149.802C267.069 149.623 267.434 149.705 267.61 149.983C267.786 150.261 267.706 150.632 267.431 150.809C266.752 151.25 266.052 151.663 265.352 152.041C265.262 152.089 265.167 152.111 265.074 152.111ZM254.554 151.692C254.402 151.692 254.251 151.633 254.135 151.516C253.591 150.962 253.014 150.448 252.421 149.991C252.162 149.79 252.111 149.415 252.309 149.152C252.506 148.89 252.877 148.839 253.136 149.037C253.773 149.528 254.391 150.077 254.973 150.671C255.203 150.907 255.202 151.285 254.971 151.518C254.855 151.633 254.704 151.692 254.554 151.692ZM269.015 149.49C268.851 149.49 268.688 149.421 268.571 149.287C268.356 149.038 268.381 148.66 268.626 148.442C269.201 147.931 269.712 147.373 270.145 146.783C270.34 146.519 270.711 146.464 270.971 146.661C271.233 146.858 271.287 147.233 271.092 147.498C270.61 148.154 270.042 148.775 269.404 149.342C269.293 149.441 269.154 149.49 269.015 149.49ZM244.262 149.016C244.124 149.016 243.985 148.967 243.873 148.867C243.628 148.648 243.603 148.271 243.818 148.022C243.938 147.884 244.071 147.745 244.219 147.607C244.746 147.111 245.394 146.785 246.144 146.639C246.459 146.576 246.773 146.789 246.836 147.113C246.897 147.438 246.688 147.752 246.367 147.815C245.838 147.918 245.385 148.143 245.021 148.484C244.906 148.593 244.8 148.701 244.706 148.811C244.59 148.947 244.426 149.016 244.262 149.016ZM250.79 148.82C250.698 148.82 250.604 148.798 250.516 148.751C249.804 148.373 249.11 148.097 248.453 147.931C248.137 147.85 247.944 147.525 248.023 147.205C248.103 146.884 248.422 146.69 248.739 146.769C249.488 146.959 250.27 147.27 251.066 147.693C251.354 147.846 251.466 148.208 251.314 148.5C251.208 148.703 251.004 148.82 250.79 148.82ZM271.8 145.674C271.721 145.674 271.642 145.658 271.565 145.625C271.266 145.493 271.129 145.14 271.259 144.838C271.55 144.16 271.768 143.435 271.908 142.683C271.969 142.358 272.279 142.148 272.598 142.206C272.918 142.267 273.129 142.58 273.068 142.905C272.912 143.745 272.667 144.556 272.341 145.314C272.245 145.54 272.028 145.674 271.8 145.674ZM272.693 141.012C272.369 141.012 272.105 140.747 272.103 140.417C272.098 139.681 272.03 138.912 271.901 138.131C271.848 137.805 272.064 137.497 272.386 137.441C272.703 137.384 273.012 137.606 273.067 137.932C273.206 138.776 273.279 139.609 273.285 140.41C273.287 140.74 273.024 141.009 272.698 141.012C272.697 141.012 272.695 141.012 272.693 141.012ZM271.936 136.302C271.683 136.302 271.449 136.136 271.371 135.879C271.154 135.16 270.887 134.424 270.577 133.693C270.449 133.39 270.588 133.038 270.887 132.907C271.186 132.775 271.534 132.916 271.663 133.221C271.989 133.992 272.271 134.768 272.5 135.528C272.596 135.845 272.42 136.179 272.108 136.276C272.052 136.294 271.993 136.302 271.936 136.302ZM270.085 131.906C269.877 131.906 269.674 131.794 269.567 131.595C269.202 130.921 268.799 130.246 268.368 129.591C268.187 129.316 268.26 128.945 268.532 128.761C268.804 128.576 269.17 128.652 269.351 128.927C269.802 129.612 270.223 130.315 270.603 131.02C270.76 131.311 270.655 131.675 270.368 131.833C270.278 131.883 270.181 131.906 270.085 131.906ZM262.857 128.146C262.551 128.146 262.292 127.907 262.269 127.592C262.244 127.263 262.489 126.976 262.814 126.951C263.563 126.894 264.307 126.764 265.022 126.563C265.337 126.474 265.662 126.66 265.75 126.979C265.837 127.297 265.653 127.626 265.339 127.715C264.549 127.939 263.728 128.083 262.901 128.145C262.886 128.146 262.871 128.146 262.857 128.146ZM260.499 128.097C260.477 128.097 260.454 128.096 260.431 128.093C259.602 127.995 258.789 127.819 258.012 127.569C257.702 127.468 257.53 127.132 257.629 126.817C257.728 126.503 258.058 126.331 258.371 126.428C259.076 126.655 259.815 126.816 260.567 126.903C260.891 126.942 261.123 127.239 261.086 127.567C261.051 127.872 260.796 128.097 260.499 128.097ZM267.468 127.922C267.295 127.922 267.123 127.845 267.006 127.696C266.518 127.076 266.008 126.482 265.489 125.929C265.265 125.689 265.275 125.309 265.511 125.082C265.749 124.856 266.122 124.864 266.347 125.104C266.563 125.335 266.778 125.574 266.99 125.817C267.026 125.785 267.065 125.758 267.109 125.736C267.765 125.397 268.4 124.984 268.997 124.509C269.253 124.304 269.626 124.348 269.827 124.608C270.028 124.868 269.984 125.244 269.728 125.448C269.105 125.945 268.446 126.378 267.763 126.74C267.82 126.81 267.875 126.88 267.93 126.95C268.133 127.209 268.091 127.584 267.836 127.79C267.727 127.88 267.597 127.922 267.468 127.922ZM256.034 126.63C255.932 126.63 255.828 126.603 255.733 126.546C254.903 126.047 254.226 125.459 253.774 124.846C253.578 124.581 253.632 124.206 253.893 124.008C254.156 123.81 254.525 123.866 254.72 124.129C255.08 124.617 255.639 125.098 256.336 125.517C256.616 125.686 256.709 126.052 256.542 126.336C256.433 126.526 256.236 126.63 256.034 126.63ZM264.212 124.458C264.074 124.458 263.937 124.41 263.825 124.312C263.222 123.782 262.611 123.307 262.009 122.896C261.739 122.712 261.667 122.34 261.849 122.065C262.032 121.791 262.399 121.719 262.669 121.903C263.31 122.34 263.959 122.846 264.598 123.407C264.845 123.623 264.872 124.001 264.658 124.251C264.542 124.388 264.377 124.458 264.212 124.458ZM271.061 123.921C270.928 123.921 270.793 123.875 270.683 123.782C270.432 123.57 270.398 123.193 270.608 122.939C271.087 122.357 271.495 121.724 271.817 121.058C271.961 120.762 272.314 120.643 272.607 120.784C272.9 120.93 273.02 121.289 272.877 121.586C272.513 122.338 272.054 123.05 271.514 123.706C271.398 123.848 271.23 123.921 271.061 123.921ZM253.865 122.858C253.776 122.858 253.686 122.838 253.6 122.794C253.309 122.646 253.191 122.286 253.338 121.99C253.693 121.274 254.418 120.698 255.492 120.284C255.795 120.167 256.139 120.319 256.255 120.628C256.371 120.938 256.219 121.283 255.913 121.401C255.135 121.702 254.608 122.091 254.393 122.527C254.289 122.737 254.081 122.858 253.865 122.858ZM260.279 121.828C260.199 121.828 260.118 121.812 260.04 121.777C259.299 121.444 258.595 121.233 257.949 121.152C257.626 121.111 257.395 120.814 257.436 120.485C257.475 120.158 257.772 119.919 258.094 119.965C258.856 120.061 259.671 120.301 260.518 120.682C260.817 120.817 260.951 121.17 260.819 121.472C260.722 121.696 260.506 121.828 260.279 121.828ZM273.128 119.668C273.084 119.668 273.041 119.663 272.997 119.653C272.678 119.58 272.479 119.26 272.551 118.937C272.71 118.226 272.8 117.467 272.818 116.683C272.826 116.352 273.106 116.098 273.423 116.098C273.749 116.106 274.007 116.38 274 116.711C273.979 117.575 273.88 118.412 273.704 119.201C273.641 119.48 273.398 119.668 273.128 119.668ZM273.27 114.908C272.979 114.908 272.725 114.689 272.685 114.389C272.588 113.655 272.436 112.891 272.235 112.115C272.152 111.796 272.34 111.469 272.656 111.385C272.97 111.297 273.295 111.492 273.377 111.811C273.591 112.634 273.751 113.448 273.856 114.231C273.9 114.558 273.673 114.859 273.35 114.903C273.322 114.907 273.296 114.908 273.27 114.908ZM272.091 110.279C271.851 110.279 271.626 110.129 271.537 109.889C271.278 109.177 270.976 108.449 270.643 107.724C270.506 107.425 270.634 107.069 270.93 106.929C271.227 106.788 271.577 106.919 271.714 107.219C272.061 107.973 272.374 108.73 272.645 109.472C272.759 109.782 272.603 110.127 272.297 110.242C272.229 110.267 272.159 110.279 272.091 110.279ZM270.103 105.937C269.896 105.937 269.694 105.826 269.587 105.63C268.909 104.401 268.386 103.644 268.381 103.635C268.193 103.365 268.258 102.992 268.524 102.802C268.792 102.611 269.159 102.679 269.348 102.947C269.37 102.98 269.908 103.758 270.618 105.046C270.777 105.335 270.675 105.699 270.39 105.86C270.299 105.912 270.2 105.937 270.103 105.937Z" fill="white" fill-opacity="0.14"/>
<path d="M12.0866 287.389C11.9336 287.389 11.7832 287.385 11.6344 287.376C11.3085 287.357 11.0606 287.073 11.0795 286.744C11.0983 286.414 11.3839 286.145 11.7036 286.181C12.3984 286.22 13.1378 286.149 13.8809 285.978C14.1984 285.901 14.5155 286.106 14.5878 286.428C14.6606 286.751 14.4615 287.071 14.1434 287.145C13.4501 287.305 12.7579 287.388 12.0866 287.389ZM9.37534 286.879C9.30459 286.879 9.2328 286.866 9.16311 286.839C8.40799 286.544 7.67018 286.125 6.97061 285.593C6.70912 285.395 6.65619 285.019 6.85217 284.756C7.04816 284.493 7.41811 284.438 7.67855 284.635C8.29218 285.101 8.93411 285.467 9.58704 285.722C9.89149 285.841 10.0435 286.187 9.92555 286.495C9.83647 286.733 9.61272 286.879 9.37534 286.879ZM16.2395 286.378C16.0163 286.378 15.8025 286.249 15.7024 286.031C15.5656 285.73 15.695 285.375 15.9911 285.236C16.6357 284.934 17.3043 284.557 17.9792 284.113C18.2528 283.936 18.6191 284.012 18.7962 284.289C18.9738 284.567 18.8958 284.938 18.6222 285.118C17.9006 285.592 17.1817 285.998 16.4863 286.323C16.4061 286.36 16.3218 286.378 16.2395 286.378ZM5.60291 284.08C5.43993 284.08 5.27644 284.011 5.16011 283.877C4.64709 283.288 4.15189 282.621 3.68708 281.893C3.50944 281.616 3.58752 281.245 3.86106 281.065C4.13459 280.888 4.5009 280.965 4.67802 281.243C5.11191 281.921 5.57199 282.541 6.04623 283.085C6.26213 283.334 6.23854 283.711 5.99383 283.93C5.88064 284.031 5.74177 284.08 5.60291 284.08ZM20.209 283.803C20.0366 283.803 19.8657 283.727 19.7494 283.581C19.544 283.324 19.5833 282.948 19.8369 282.74C20.222 282.423 20.6151 282.084 21.0149 281.719C21.2062 281.545 21.3932 281.369 21.5746 281.193C21.8109 280.965 22.185 280.974 22.4098 281.212C22.6352 281.45 22.6268 281.83 22.3915 282.058C22.2013 282.243 22.0063 282.426 21.8056 282.61C21.3896 282.988 20.9819 283.341 20.5805 283.67C20.471 283.76 20.3394 283.803 20.209 283.803ZM23.6046 280.486C23.4689 280.486 23.3332 280.439 23.2216 280.343C22.9737 280.129 22.9433 279.751 23.1545 279.5C23.6602 278.898 24.1229 278.275 24.5295 277.649C24.7092 277.372 25.0771 277.297 25.3475 277.477C25.6205 277.658 25.696 278.029 25.5173 278.305C25.0834 278.974 24.5913 279.636 24.0547 280.276C23.9374 280.415 23.7712 280.486 23.6046 280.486ZM3.00795 280.085C2.79206 280.085 2.58403 279.965 2.48027 279.757C2.12865 279.052 1.7938 278.301 1.48567 277.524C1.3641 277.218 1.5103 276.869 1.81319 276.746C2.11502 276.626 2.45878 276.771 2.5814 277.078C2.87695 277.822 3.19765 278.542 3.53407 279.217C3.68132 279.511 3.56447 279.871 3.27311 280.021C3.18875 280.064 3.09756 280.085 3.00795 280.085ZM26.1807 276.49C26.0969 276.49 26.0109 276.472 25.9302 276.433C25.6347 276.293 25.5078 275.936 25.6462 275.637C25.9721 274.935 26.241 274.212 26.4438 273.49C26.5339 273.172 26.864 272.986 27.1742 273.08C27.4881 273.17 27.67 273.502 27.5804 273.82C27.3592 274.603 27.0684 275.385 26.7157 276.147C26.6156 276.363 26.4029 276.49 26.1807 276.49ZM1.22995 275.644C0.979989 275.644 0.748372 275.483 0.667673 275.229C0.316579 274.119 0.108021 273.274 0.0152691 272.867C-0.0580939 272.546 0.139983 272.224 0.45754 272.149C0.778765 272.079 1.09318 272.276 1.16654 272.598C1.23728 272.909 1.44113 273.755 1.79222 274.862C1.89178 275.177 1.72148 275.513 1.41021 275.614C1.35047 275.635 1.28916 275.644 1.22995 275.644ZM27.4661 271.909C27.4452 271.909 27.4247 271.908 27.4032 271.906C27.0789 271.871 26.8436 271.576 26.8782 271.248C26.928 270.773 26.9521 270.302 26.9521 269.836C26.9515 269.543 26.9421 269.251 26.9232 268.961C26.9018 268.63 27.1486 268.346 27.474 268.324C27.7921 268.293 28.0808 268.553 28.1023 268.881C28.1227 269.196 28.1327 269.514 28.1332 269.835C28.1332 270.345 28.106 270.863 28.0525 271.374C28.0211 271.681 27.7648 271.909 27.4661 271.909ZM27.1627 267.156C26.8944 267.156 26.6523 266.97 26.5884 266.694C26.4186 265.96 26.1875 265.221 25.9014 264.501C25.7798 264.195 25.926 263.847 26.2289 263.723C26.5292 263.603 26.875 263.747 26.9971 264.055C27.3058 264.831 27.5547 265.628 27.7381 266.42C27.8125 266.742 27.6155 267.064 27.2979 267.139C27.2528 267.152 27.2073 267.156 27.1627 267.156ZM25.4177 262.728C25.2128 262.728 25.0148 262.62 24.9047 262.427C24.8712 262.369 24.8376 262.31 24.8036 262.252C24.6123 262.283 24.4205 262.313 24.2298 262.341C23.9033 262.379 23.6077 262.16 23.5616 261.832C23.516 261.505 23.7403 261.202 24.0637 261.155C24.0768 261.153 24.0909 261.151 24.104 261.149C23.9536 260.931 23.798 260.715 23.6376 260.502C23.439 260.24 23.4888 259.864 23.7477 259.662C24.006 259.463 24.3781 259.512 24.5756 259.774C24.8586 260.15 25.129 260.535 25.3826 260.928C25.6996 260.865 26.0162 260.795 26.3295 260.719C26.6492 260.641 26.9662 260.84 27.0411 261.162C27.1166 261.483 26.9211 261.806 26.6041 261.883C26.4029 261.931 26.2011 261.977 25.9983 262.022C26.0418 262.264 25.9339 262.517 25.7117 262.647C25.6189 262.702 25.5173 262.728 25.4177 262.728ZM20.918 262.588C20.4002 262.589 19.8872 262.574 19.3936 262.539C19.0676 262.516 18.8219 262.23 18.8439 261.901C18.8664 261.571 19.152 261.327 19.4732 261.344C19.9406 261.376 20.4248 261.398 20.9169 261.391C21.1983 261.391 21.4818 261.384 21.7695 261.371C22.0939 261.385 22.3705 261.613 22.3847 261.944C22.3994 262.274 22.1457 262.553 21.8198 262.568C21.5153 262.581 21.2146 262.588 20.918 262.588ZM17.0926 262.227C17.0538 262.227 17.014 262.223 16.9747 262.215C16.12 262.04 15.324 261.806 14.6082 261.518C14.3048 261.397 14.1565 261.05 14.2765 260.742C14.3965 260.435 14.7397 260.282 15.0432 260.406C15.694 260.666 16.4229 260.88 17.2089 261.042C17.5286 261.107 17.7356 261.423 17.6711 261.748C17.614 262.03 17.3677 262.227 17.0926 262.227ZM28.7374 261.244C28.4901 261.244 28.259 261.086 28.1767 260.834C28.074 260.521 28.2417 260.182 28.5508 260.078C29.2687 259.836 29.9956 259.556 30.7098 259.244C31.0111 259.11 31.3575 259.253 31.4864 259.556C31.6159 259.859 31.4775 260.211 31.1783 260.342C30.4326 260.668 29.6738 260.962 28.9234 261.214C28.8621 261.235 28.7992 261.244 28.7374 261.244ZM12.771 260.396C12.6405 260.396 12.5095 260.353 12.4 260.263C11.5631 259.577 11.0527 258.773 10.9228 257.936C10.8725 257.61 11.0931 257.304 11.4154 257.252C11.7402 257.204 12.04 257.425 12.0903 257.751C12.1736 258.29 12.5373 258.836 13.1431 259.333C13.3967 259.541 13.436 259.917 13.2306 260.174C13.1142 260.32 12.9434 260.396 12.771 260.396ZM33.0742 259.353C32.8625 259.353 32.6581 259.238 32.5523 259.035C32.3987 258.744 32.5083 258.382 32.7965 258.227C33.4698 257.865 34.1416 257.466 34.794 257.044C35.0686 256.865 35.4339 256.947 35.6105 257.225C35.786 257.503 35.7058 257.874 35.4312 258.051C34.7516 258.492 34.052 258.905 33.3519 259.283C33.2623 259.332 33.1675 259.353 33.0742 259.353ZM22.5539 258.934C22.4025 258.934 22.2505 258.876 22.1353 258.758C21.5913 258.204 21.0144 257.691 20.4212 257.234C20.1618 257.032 20.1115 256.658 20.3085 256.394C20.5056 256.133 20.8771 256.081 21.1365 256.28C21.7726 256.771 22.391 257.32 22.9732 257.914C23.2032 258.149 23.2022 258.527 22.9711 258.76C22.8547 258.876 22.7043 258.934 22.5539 258.934ZM37.0154 256.732C36.8513 256.732 36.6884 256.663 36.571 256.529C36.3556 256.28 36.3808 255.903 36.626 255.684C37.2009 255.173 37.7123 254.615 38.1452 254.025C38.3401 253.761 38.7111 253.706 38.971 253.903C39.233 254.1 39.287 254.476 39.0921 254.741C38.61 255.396 38.0424 256.017 37.4042 256.584C37.2926 256.683 37.1537 256.732 37.0154 256.732ZM12.2622 256.258C12.1238 256.258 11.985 256.209 11.8728 256.109C11.6276 255.89 11.603 255.513 11.8178 255.264C11.9383 255.126 12.0714 254.987 12.2187 254.849C12.7458 254.354 13.3941 254.027 14.1445 253.881C14.4594 253.818 14.7733 254.031 14.8362 254.356C14.8975 254.681 14.6879 254.994 14.3672 255.057C13.8379 255.16 13.3846 255.386 13.0215 255.726C12.9057 255.835 12.7998 255.944 12.706 256.053C12.5897 256.189 12.4262 256.258 12.2622 256.258ZM18.7904 256.062C18.6982 256.062 18.6039 256.04 18.5164 255.993C17.8042 255.615 17.1099 255.339 16.4533 255.173C16.1368 255.093 15.9445 254.768 16.0231 254.448C16.1027 254.126 16.4219 253.932 16.7394 254.012C17.4877 254.201 18.2701 254.512 19.0655 254.935C19.3543 255.088 19.4659 255.45 19.3139 255.742C19.2081 255.946 19.0037 256.062 18.7904 256.062ZM39.8 252.916C39.7214 252.916 39.6418 252.9 39.5653 252.868C39.266 252.735 39.1287 252.382 39.2587 252.08C39.5495 251.402 39.768 250.677 39.908 249.925C39.9687 249.6 40.2795 249.39 40.5976 249.448C40.9183 249.509 41.1289 249.822 41.0681 250.147C40.912 250.987 40.6673 251.798 40.3413 252.557C40.2454 252.782 40.0285 252.916 39.8 252.916ZM40.6935 248.254C40.3691 248.254 40.105 247.989 40.1029 247.659C40.0982 246.923 40.0301 246.154 39.9011 245.373C39.8477 245.047 40.0641 244.739 40.3864 244.684C40.7034 244.626 41.0121 244.848 41.0666 245.175C41.206 246.018 41.2793 246.852 41.2846 247.652C41.2867 247.982 41.0236 248.252 40.6982 248.254C40.6966 248.254 40.6945 248.254 40.6935 248.254ZM39.9363 243.544C39.6832 243.544 39.4494 243.378 39.3714 243.121C39.1544 242.402 38.8872 241.666 38.5775 240.936C38.4491 240.632 38.5879 240.28 38.8872 240.149C39.1864 240.018 39.5343 240.158 39.6627 240.463C39.9892 241.234 40.2711 242.011 40.5001 242.77C40.596 243.087 40.4199 243.421 40.1076 243.518C40.0515 243.536 39.9934 243.544 39.9363 243.544ZM38.0854 239.148C37.8769 239.148 37.6741 239.036 37.5666 238.837C37.2024 238.163 36.7995 237.489 36.3682 236.833C36.1869 236.558 36.2603 236.187 36.5322 236.003C36.8037 235.818 37.1699 235.894 37.3513 236.169C37.8019 236.854 38.2227 237.558 38.6031 238.263C38.7598 238.553 38.6545 238.917 38.3684 239.075C38.2777 239.125 38.1813 239.148 38.0854 239.148ZM30.8571 235.388C30.551 235.388 30.2916 235.149 30.2686 234.835C30.2445 234.505 30.4892 234.218 30.8141 234.193C31.5634 234.137 32.3065 234.006 33.0223 233.805C33.3367 233.716 33.6622 233.902 33.7502 234.221C33.8372 234.539 33.6532 234.869 33.3393 234.957C32.5486 235.181 31.728 235.325 30.9006 235.387C30.8864 235.388 30.8712 235.388 30.8571 235.388ZM28.4995 235.339C28.477 235.339 28.4539 235.338 28.4309 235.335C27.6024 235.237 26.7891 235.061 26.0125 234.811C25.7017 234.71 25.5304 234.374 25.6289 234.059C25.7279 233.745 26.0581 233.573 26.3714 233.67C27.0757 233.898 27.8146 234.058 28.5671 234.146C28.8915 234.184 29.1231 234.481 29.0859 234.809C29.0508 235.114 28.7956 235.339 28.4995 235.339ZM35.4685 235.164C35.295 235.164 35.1226 235.087 35.0057 234.938C34.5184 234.319 34.008 233.724 33.4892 233.171C33.2649 232.931 33.2749 232.551 33.5112 232.325C33.7486 232.098 34.1222 232.106 34.3465 232.346C34.563 232.577 34.7778 232.816 34.99 233.059C35.0257 233.028 35.0655 233 35.109 232.978C35.765 232.639 36.3996 232.226 36.997 231.751C37.2527 231.546 37.6259 231.59 37.8265 231.85C38.0278 232.111 37.9843 232.486 37.7275 232.69C37.1055 233.187 36.4457 233.621 35.7635 233.982C35.8195 234.052 35.8746 234.122 35.9301 234.192C36.1329 234.451 36.091 234.827 35.8363 235.033C35.7273 235.122 35.5968 235.164 35.4685 235.164ZM24.0343 233.872C23.9316 233.872 23.8278 233.845 23.733 233.788C22.9035 233.289 22.2264 232.701 21.7737 232.088C21.5782 231.823 21.6317 231.448 21.8932 231.251C22.1557 231.052 22.5246 231.108 22.7195 231.371C23.0801 231.86 23.6392 232.34 24.3361 232.759C24.6165 232.928 24.7087 233.295 24.5421 233.579C24.4326 233.768 24.2355 233.872 24.0343 233.872ZM32.2117 231.7C32.0744 231.7 31.9366 231.652 31.8255 231.554C31.2223 231.024 30.6113 230.549 30.0092 230.138C29.7388 229.954 29.667 229.582 29.8489 229.308C30.0317 229.033 30.3986 228.961 30.6689 229.145C31.3103 229.582 31.9591 230.089 32.5984 230.649C32.8452 230.865 32.8719 231.243 32.6581 231.493C32.5418 231.63 32.3767 231.7 32.2117 231.7ZM39.0606 231.163C38.9275 231.163 38.7928 231.117 38.6828 231.024C38.4323 230.813 38.3983 230.435 38.6079 230.181C39.0873 229.6 39.4945 228.966 39.8168 228.3C39.9609 228.004 40.3141 227.885 40.607 228.027C40.8999 228.173 41.0205 228.531 40.8769 228.828C40.5127 229.58 40.0542 230.292 39.5144 230.948C39.3981 231.09 39.2304 231.163 39.0606 231.163ZM21.8649 230.1C21.7763 230.1 21.6856 230.08 21.6002 230.037C21.3089 229.888 21.1915 229.528 21.3377 229.232C21.693 228.516 22.4182 227.941 23.4925 227.526C23.7954 227.409 24.1386 227.561 24.2549 227.871C24.3707 228.18 24.2188 228.525 23.9133 228.643C23.1346 228.945 22.6084 229.334 22.3925 229.769C22.2893 229.979 22.0813 230.1 21.8649 230.1ZM28.2789 229.07C28.1992 229.07 28.118 229.054 28.0399 229.019C27.299 228.686 26.5952 228.475 25.9491 228.395C25.6258 228.354 25.3952 228.056 25.4355 227.727C25.4754 227.4 25.772 227.161 26.0942 227.207C26.8556 227.303 27.671 227.544 28.5184 227.925C28.8165 228.059 28.9512 228.412 28.8186 228.715C28.7222 228.938 28.5058 229.07 28.2789 229.07ZM41.1279 226.91C41.0844 226.91 41.0409 226.905 40.9969 226.895C40.6783 226.823 40.4791 226.502 40.5509 226.18C40.7102 225.468 40.8004 224.71 40.8182 223.925C40.8255 223.594 41.1064 223.341 41.4229 223.341C41.7489 223.348 42.0072 223.622 41.9999 223.953C41.9794 224.817 41.8798 225.655 41.7038 226.444C41.6414 226.722 41.3977 226.91 41.1279 226.91ZM41.2699 222.15C40.9785 222.15 40.7254 221.932 40.6851 221.632C40.5876 220.897 40.4357 220.133 40.235 219.357C40.1522 219.038 40.3403 218.711 40.6563 218.627C40.9696 218.539 41.295 218.735 41.3773 219.054C41.5906 219.877 41.7515 220.69 41.8563 221.473C41.8998 221.8 41.6729 222.101 41.3501 222.145C41.3223 222.149 41.2956 222.15 41.2699 222.15ZM40.0914 217.521C39.8514 217.521 39.626 217.371 39.5375 217.131C39.2776 216.419 38.9762 215.691 38.6435 214.966C38.5057 214.667 38.6335 214.311 38.9296 214.172C39.2272 214.03 39.5768 214.161 39.7141 214.462C40.061 215.215 40.3738 215.972 40.6453 216.715C40.759 217.024 40.6028 217.369 40.2968 217.484C40.2287 217.509 40.1595 217.521 40.0914 217.521ZM38.1027 213.179C37.8957 213.179 37.6945 213.068 37.5865 212.873C36.909 211.643 36.386 210.886 36.3808 210.878C36.1932 210.607 36.2581 210.235 36.5243 210.044C36.7916 209.853 37.1595 209.921 37.3476 210.189C37.3701 210.222 37.9078 211 38.6178 212.288C38.7771 212.577 38.6749 212.942 38.3899 213.102C38.2987 213.155 38.2002 213.179 38.1027 213.179Z" fill="white" fill-opacity="0.14"/>
<path d="M320.192 134.511C315.553 134.511 311.792 128.484 311.792 121.05C311.792 113.616 315.553 107.59 320.192 107.59C324.83 107.59 328.591 113.616 328.591 121.05C328.591 128.484 324.83 134.511 320.192 134.511Z" fill="#263238"/>
<path d="M320.191 134.918C325.046 134.918 329 128.699 329 121.051C329 113.403 325.046 107.185 320.191 107.185C315.337 107.185 311.399 113.403 311.399 121.051C311.399 128.699 315.337 134.918 320.191 134.918ZM320.191 107.996C324.596 107.996 328.181 113.85 328.181 121.051C328.181 128.252 324.596 134.106 320.191 134.106C315.787 134.106 312.21 128.252 312.21 121.051C312.21 113.85 315.787 107.996 320.191 107.996Z" fill="#263238"/>
<path d="M312.807 121.051C312.807 125.11 314.862 128.406 317.392 128.406C319.921 128.406 321.984 125.118 321.984 121.051C321.984 116.983 319.93 113.695 317.392 113.695C314.854 113.695 312.807 116.991 312.807 121.051Z" fill="#DDE2FF"/>
<path d="M317.392 128.813C320.15 128.813 322.394 125.33 322.394 121.051C322.394 116.773 320.15 113.29 317.392 113.29C314.633 113.29 312.398 116.773 312.398 121.051C312.398 125.33 314.674 128.813 317.392 128.813ZM317.392 114.102C319.7 114.102 321.575 117.219 321.575 121.051C321.575 124.883 319.7 128.001 317.392 128.001C315.083 128.001 313.217 124.883 313.217 121.051C313.217 117.219 315.091 114.102 317.392 114.102Z" fill="#263238"/>
<path d="M315.992 140.9C315.992 140.9 316.811 146.73 314.879 148.118C312.947 149.506 308.436 152.559 306.758 151.998C305.08 151.438 305.358 147.006 305.939 145.893C306.521 144.781 315.992 140.9 315.992 140.9Z" fill="#DDE2FF"/>
<path d="M307.208 152.47C308.706 152.47 311.301 151.147 315.116 148.411C317.211 146.917 316.491 141.421 316.401 140.804L316.327 140.284L315.836 140.487C313.577 141.413 306.135 144.546 305.554 145.675C304.944 147.445 304.921 149.363 305.488 151.147C305.577 151.418 305.725 151.666 305.922 151.874C306.118 152.082 306.359 152.244 306.626 152.348C306.812 152.42 307.009 152.461 307.208 152.47ZM315.656 141.478C315.844 143.304 315.934 146.868 314.641 147.786C309.082 151.723 307.371 151.78 306.888 151.618C306.733 151.548 306.595 151.446 306.483 151.319C306.372 151.191 306.289 151.041 306.242 150.879C305.764 149.313 305.778 147.639 306.283 146.081C306.635 145.472 311.235 143.304 315.656 141.478Z" fill="#263238"/>
<path d="M315.435 133.96C315.435 133.96 318.791 140.901 316.835 142.29C314.878 143.678 305.079 147.283 302.836 147.283C300.593 147.283 300.036 142.29 302.279 140.341C304.522 138.393 315.435 133.96 315.435 133.96Z" fill="#DDE2FF"/>
<path d="M302.836 147.688C305.194 147.688 315.05 144.05 317.072 142.613C319.25 141.079 316.164 134.495 315.803 133.78L315.64 133.439L315.279 133.586C314.829 133.764 304.277 138.075 302.009 140.08C300.372 141.477 300.118 144.245 300.781 146.007C300.905 146.464 301.169 146.872 301.537 147.174C301.906 147.475 302.36 147.655 302.836 147.688ZM315.23 134.487C316.434 137.077 317.768 141.128 316.597 141.956C314.764 143.255 304.981 146.876 302.836 146.876C302.108 146.876 301.715 146.129 301.551 145.682C300.978 144.164 301.24 141.785 302.55 140.649C304.49 138.968 313.331 135.266 315.23 134.487Z" fill="#263238"/>
<path d="M302.558 129.795C302.558 129.795 314.313 127.019 315.157 128.983C316 130.948 318.235 133.148 316.278 135.089C314.322 137.029 300.88 144.246 299.48 142.858C298.08 141.47 298.661 131.2 299.48 130.68C300.452 130.224 301.491 129.925 302.558 129.795Z" fill="#DDE2FF"/>
<path d="M300.102 143.401C303.728 143.401 315.148 136.76 316.565 135.355C318.284 133.651 317.162 131.718 316.262 130.168C315.994 129.727 315.751 129.271 315.533 128.804C314.624 126.717 305.349 128.723 302.484 129.396C301.363 129.51 300.269 129.812 299.25 130.289C299.087 130.403 298.694 130.663 298.432 133.537C298.17 136.167 298.014 141.972 299.25 143.166C299.498 143.341 299.799 143.424 300.102 143.401ZM312.823 128.641C313.92 128.641 314.641 128.779 314.78 129.096C315.007 129.595 315.264 130.08 315.55 130.549C316.581 132.327 317.187 133.577 315.983 134.755C313.732 136.987 300.798 143.498 299.766 142.532C298.53 141.306 299.152 131.629 299.766 130.915C300.678 130.525 301.644 130.276 302.631 130.176H302.681C306.002 129.333 309.4 128.819 312.823 128.641Z" fill="#263238"/>
<path d="M283.918 166.053C283.918 166.053 290.876 144.945 292.816 140.358C294.756 135.771 297.482 118.495 297.482 116.197C297.482 113.899 301.494 113.883 305.603 113.891C307.683 113.891 316.041 111.594 317.204 114.663C318.366 117.731 314.879 118.876 313.724 118.876C312.57 118.876 304.826 120.792 304.826 120.792C304.826 120.792 302.894 133.067 302.894 134.594C302.894 136.12 310.63 155.304 306.373 162.197C302.116 169.089 293.61 179.457 293.61 179.457L281.625 170.632L283.918 166.053Z" fill="#DDE2FF"/>
<path d="M293.66 180.032L293.905 179.724C293.987 179.626 302.476 169.275 306.701 162.423C310.139 156.845 306.078 143.856 304.13 137.613C303.802 136.624 303.528 135.619 303.311 134.601C303.311 133.237 304.949 122.918 305.194 121.124C307.511 120.556 312.857 119.281 313.733 119.281C314.428 119.25 315.109 119.072 315.73 118.76C316.351 118.448 316.898 118.008 317.335 117.47C317.623 117.039 317.798 116.542 317.844 116.026C317.89 115.51 317.805 114.991 317.597 114.515C316.598 111.877 311.391 112.672 307.945 113.2C307.176 113.34 306.4 113.435 305.62 113.484C305.35 113.484 305.055 113.484 304.801 113.484C301.813 113.484 298.891 113.574 297.687 114.759C297.497 114.947 297.347 115.171 297.246 115.418C297.144 115.665 297.094 115.929 297.098 116.196C297.098 118.404 294.437 135.559 292.489 140.194C290.606 144.684 283.893 165.005 283.599 165.898L281.143 170.769L293.66 180.032ZM313.217 113.46C314.952 113.46 316.41 113.777 316.794 114.791C316.958 115.143 317.029 115.53 317.001 115.917C316.972 116.303 316.845 116.676 316.631 117C316.268 117.428 315.821 117.778 315.317 118.03C314.813 118.281 314.263 118.428 313.7 118.461C312.521 118.461 305.513 120.198 304.695 120.393L304.433 120.458L304.392 120.726C304.31 121.229 302.452 133.042 302.452 134.592C302.65 135.699 302.949 136.786 303.344 137.84C305.252 143.969 309.238 156.732 305.988 161.993C302.206 168.138 294.937 177.15 293.504 178.904L282.109 170.517L284.303 166.166C284.368 165.954 291.277 145.057 293.185 140.503C295.158 135.802 297.851 118.42 297.851 116.147C297.846 115.987 297.875 115.828 297.936 115.68C297.996 115.532 298.087 115.398 298.203 115.287C299.275 114.231 302.616 114.239 305.571 114.247C306.395 114.199 307.215 114.102 308.027 113.955C309.743 113.668 311.477 113.505 313.217 113.468V113.46Z" fill="#263238"/>
<path d="M183.217 310.863C183.217 310.863 181.989 293.457 183.217 289C184.445 284.543 201.587 226.252 201.587 226.252C201.587 226.252 246.899 256.615 255.061 254.18C263.222 251.744 303.639 178.474 303.639 178.474L283.639 163.901L250.574 209.243C250.574 209.243 235.061 195.88 230.567 191.025C226.073 186.171 210.977 159.046 210.977 156.205C210.977 153.363 201.153 152.146 194.604 151.334C188.055 150.522 171.739 147.275 171.739 147.275C171.739 147.275 153.369 144.441 150.512 144.441C147.655 144.441 142.76 144.035 137.037 144.441C131.315 144.847 96.6292 151.748 93.3628 152.138C90.0965 152.527 86.8137 167.928 86.4208 175.616C86.0278 183.305 72.946 252.946 68.4598 278.446C63.9737 303.946 63.548 309.621 63.548 309.621" fill="#DDE2FF"/>
<path d="M182.807 310.888L183.626 310.831C183.626 310.661 182.423 293.441 183.626 289.106C184.772 284.933 200.105 232.771 201.832 226.893C206.916 230.279 247.292 256.932 255.2 254.57C263.427 252.134 302.361 181.665 304.015 178.669L304.187 178.361L283.565 163.333L250.517 208.643C248.225 206.662 234.963 195.142 230.87 190.782C226.203 185.74 211.386 158.787 211.386 156.238C211.386 153.291 203.822 152.113 194.694 150.977C188.251 150.165 172.026 146.966 171.862 146.918C171.093 146.804 153.41 144.076 150.577 144.076C149.759 144.076 148.785 144.076 147.663 144.011C144.12 143.84 140.57 143.859 137.029 144.068C133.337 144.336 117.603 147.315 106.125 149.434C99.6171 150.66 94.4842 151.618 93.3217 151.764C89.5478 152.235 86.4043 168.57 86.0277 175.625C85.733 181.129 78.9137 218.653 73.4288 248.757C71.3249 260.318 69.3356 271.237 68.0667 278.414C63.6297 303.646 63.1549 309.573 63.1549 309.63L63.9735 309.686C63.9735 309.63 64.4402 303.711 68.8854 278.552C70.1461 271.375 72.1599 260.456 74.2393 248.903C79.7242 218.751 86.5189 181.227 86.8545 175.673C87.2884 167.433 90.7103 152.942 93.4036 152.568C94.5825 152.422 99.7317 151.456 106.248 150.238C117.709 148.087 133.419 145.14 137.062 144.88C140.559 144.67 144.065 144.648 147.565 144.815C148.695 144.815 149.685 144.88 150.504 144.88C153.295 144.88 171.486 147.681 171.674 147.713C171.862 147.746 188.047 150.961 194.547 151.772C200.122 152.463 210.518 153.753 210.518 156.221C210.518 159.315 225.802 186.536 230.215 191.318C234.627 196.1 250.099 209.43 250.255 209.568L250.591 209.861L283.729 164.47L303.115 178.596C289.099 203.975 261.249 251.915 254.946 253.798C247.062 256.136 202.266 226.195 201.816 225.911L201.349 225.603L201.194 226.138C201.022 226.715 184.002 284.486 182.815 288.895C181.628 293.303 182.75 310.174 182.807 310.888Z" fill="#263238"/>
<path d="M165.247 254.586L127.696 177.265L135.449 166.329L125.625 159.022V146.252C130.963 145.302 135.334 144.587 137.086 144.466C142.817 144.06 147.728 144.466 150.561 144.466C153.393 144.466 171.78 147.315 171.78 147.315C171.78 147.315 184.019 149.751 191.542 150.92L195.054 161.896L184.027 169.203L195.488 176.087L165.247 254.586Z" fill="#DDE2FF"/>
<path d="M165.297 255.618L165.632 254.733L195.922 175.877L184.747 169.147L195.496 162.043L191.878 150.563L191.632 150.523C184.199 149.362 171.985 146.943 171.887 146.918C171.117 146.805 153.434 144.077 150.602 144.077C149.783 144.077 148.809 144.077 147.688 144.012C144.136 143.84 140.578 143.859 137.029 144.069C135.474 144.182 131.716 144.767 125.568 145.855L125.232 145.92V159.25L134.876 166.419L127.205 177.225L127.303 177.436L165.297 255.618ZM194.956 176.218L165.206 253.564L128.163 177.298L136.014 166.24L126.059 158.844V146.585C131.994 145.538 135.613 144.962 137.111 144.872C140.608 144.662 144.114 144.641 147.614 144.807C148.744 144.807 149.734 144.872 150.553 144.872C153.344 144.872 171.535 147.673 171.723 147.706C171.911 147.738 183.765 150.093 191.231 151.27L194.571 161.71L183.266 169.179L194.956 176.218Z" fill="#263238"/>
<path d="M154.532 311C154.532 311 154.63 309.441 154.745 307.233L153.926 307.192C153.811 309.401 153.713 310.951 153.713 310.959L154.532 311Z" fill="#263238"/>
<path d="M155.039 301.566C155.146 298.839 155.203 296.695 155.203 295.226C155.203 290.306 165.575 255.055 165.673 254.698L164.855 254.471C164.429 255.932 154.352 290.192 154.352 295.226C154.352 296.695 154.294 298.814 154.188 301.534L155.039 301.566Z" fill="#263238"/>
<path d="M201.955 226.413L215.839 196.05L215.094 195.717L203.2 221.721L212.999 184.651L212.213 184.44L201.186 226.145L201.955 226.413Z" fill="#263238"/>
<path d="M304.679 124.014H304.769C307.589 123.741 310.391 123.305 313.16 122.707C313.391 122.674 313.613 122.595 313.812 122.474C314.011 122.353 314.183 122.193 314.317 122.003C314.451 121.814 314.544 121.599 314.591 121.372C314.638 121.145 314.637 120.911 314.589 120.684C314.54 120.458 314.445 120.244 314.31 120.055C314.174 119.866 314.001 119.707 313.801 119.588C313.601 119.468 313.379 119.391 313.147 119.36C312.916 119.33 312.68 119.347 312.456 119.41C309.864 119.966 307.243 120.378 304.605 120.644C304.153 120.654 303.724 120.841 303.412 121.165C303.099 121.488 302.929 121.922 302.939 122.37C302.949 122.818 303.138 123.243 303.464 123.553C303.79 123.863 304.227 124.031 304.679 124.022V124.014Z" fill="#8F8F8F"/>
<path d="M304.678 124.42H304.784C307.627 124.151 310.451 123.712 313.241 123.105C313.541 123.082 313.833 122.996 314.097 122.852C314.361 122.708 314.591 122.51 314.772 122.271C314.952 122.031 315.079 121.756 315.143 121.465C315.208 121.173 315.209 120.87 315.146 120.578C315.083 120.286 314.957 120.01 314.778 119.77C314.599 119.53 314.37 119.331 314.106 119.186C313.843 119.04 313.551 118.953 313.251 118.929C312.95 118.905 312.648 118.944 312.365 119.046C309.795 119.598 307.196 120.007 304.58 120.272C304.021 120.303 303.498 120.551 303.122 120.962C302.845 121.26 302.662 121.633 302.595 122.033C302.528 122.434 302.58 122.845 302.746 123.216C302.911 123.587 303.181 123.903 303.525 124.124C303.868 124.345 304.269 124.462 304.678 124.461V124.42ZM312.807 119.776C313.128 119.771 313.439 119.885 313.68 120.096C313.92 120.307 314.072 120.6 314.106 120.916C314.14 121.233 314.053 121.551 313.863 121.807C313.672 122.063 313.392 122.24 313.077 122.301C310.327 122.895 307.544 123.329 304.743 123.6L304.678 124.014V123.608C304.335 123.616 304.003 123.488 303.755 123.253C303.507 123.018 303.363 122.694 303.356 122.354C303.348 122.014 303.477 121.685 303.714 121.439C303.951 121.193 304.277 121.05 304.62 121.043C307.278 120.779 309.919 120.365 312.529 119.801L312.807 119.776Z" fill="#263238"/>
<path d="M254.463 266.577C254.888 266.577 255.281 266.577 255.748 266.577C263.803 266.09 271.228 261.064 278.449 251.233C294.109 229.873 298.186 170.494 297.343 154.557C296.639 141.348 298.702 129.317 302.353 125.33C302.643 124.959 303.005 124.651 303.419 124.423C303.833 124.196 304.289 124.054 304.76 124.007C304.975 123.997 305.186 123.944 305.38 123.853C305.575 123.761 305.75 123.633 305.894 123.475C306.039 123.316 306.15 123.131 306.222 122.93C306.295 122.729 306.326 122.515 306.315 122.302C306.294 121.873 306.102 121.469 305.781 121.18C305.461 120.891 305.037 120.74 304.604 120.76C303.7 120.822 302.819 121.066 302.014 121.478C301.209 121.89 300.497 122.46 299.922 123.155C294.674 128.911 293.487 143.768 294.068 154.744C294.887 169.877 290.745 228.947 275.796 249.333C269.198 258.337 262.567 262.924 255.543 263.354C247.439 263.833 238.352 258.824 228.577 248.416C212.278 231.107 202.954 200.411 198.844 183.662C198.742 183.243 198.477 182.882 198.106 182.657C197.735 182.433 197.289 182.363 196.867 182.465C196.445 182.566 196.08 182.829 195.854 183.197C195.628 183.565 195.558 184.006 195.66 184.425C199.843 201.474 209.372 232.788 226.187 250.632C236.199 261.202 245.703 266.577 254.463 266.577Z" fill="#263238"/>
<path d="M197.256 185.675C197.392 185.674 197.526 185.658 197.657 185.626C198.095 185.519 198.471 185.244 198.706 184.863C198.941 184.481 199.014 184.023 198.91 183.589C196.855 175.218 195.914 169.56 195.906 169.503C195.813 169.08 195.56 168.709 195.199 168.465C194.839 168.222 194.398 168.125 193.967 168.195C193.536 168.265 193.149 168.496 192.885 168.84C192.622 169.185 192.501 169.617 192.549 170.047C192.549 170.104 193.515 175.884 195.603 184.384C195.693 184.752 195.904 185.079 196.204 185.313C196.504 185.547 196.875 185.675 197.256 185.675Z" fill="#8F8F8F"/>
<path d="M197.256 186.081C197.575 186.077 197.888 186.002 198.173 185.862C198.459 185.723 198.709 185.521 198.905 185.272C199.102 185.024 199.239 184.735 199.308 184.427C199.377 184.118 199.375 183.799 199.303 183.491C197.289 175.283 196.348 169.69 196.307 169.438C196.201 168.905 195.89 168.433 195.44 168.123C194.99 167.812 194.435 167.688 193.894 167.775C193.353 167.863 192.868 168.156 192.54 168.592C192.213 169.028 192.069 169.573 192.14 170.112C192.14 170.161 193.122 175.99 195.201 184.482C195.315 184.937 195.579 185.343 195.951 185.632C196.323 185.922 196.783 186.08 197.256 186.081ZM194.219 168.496C194.525 168.498 194.821 168.606 195.054 168.802C195.288 168.998 195.444 169.269 195.496 169.568C195.537 169.811 196.487 175.446 198.509 183.686C198.549 183.849 198.556 184.019 198.53 184.185C198.504 184.35 198.446 184.51 198.357 184.653C198.269 184.796 198.153 184.921 198.016 185.02C197.879 185.119 197.724 185.19 197.559 185.229C197.226 185.301 196.878 185.243 196.587 185.068C196.296 184.893 196.084 184.613 195.996 184.287C193.9 175.73 192.958 170.039 192.95 169.99C192.922 169.824 192.927 169.653 192.966 169.489C193.004 169.325 193.074 169.17 193.173 169.032C193.272 168.895 193.397 168.779 193.542 168.689C193.686 168.6 193.847 168.54 194.014 168.512L194.219 168.496Z" fill="#263238"/>
<path d="M299.774 139.586C299.774 139.586 302.484 136.899 305.963 129.617C309.443 122.334 313.331 113.509 316.016 119.257C318.701 125.005 313.307 130.77 311.375 135.754C309.443 140.739 311.759 149.556 309.058 154.159C306.356 158.762 299.774 164.129 298.612 164.129" fill="#DDE2FF"/>
<path d="M298.612 164.534C300.127 164.534 306.84 158.729 309.41 154.362C310.933 151.78 310.925 147.948 310.916 144.246C310.916 141.234 310.916 138.108 311.735 135.9C312.34 134.455 313.043 133.053 313.839 131.703C315.984 127.838 318.415 123.454 316.36 119.086C315.714 117.706 314.92 117 314.003 117C311.481 117 308.894 122.439 306.152 128.204L305.571 129.438C302.165 136.558 299.488 139.277 299.464 139.302L300.037 139.87C300.151 139.764 302.836 137.053 306.308 129.787L306.897 128.553C309.173 123.763 311.997 117.812 314.003 117.812C314.576 117.812 315.116 118.356 315.64 119.436C317.515 123.422 315.288 127.432 313.135 131.313C312.324 132.697 311.605 134.131 310.982 135.608C310.073 137.962 310.081 141.161 310.09 144.246C310.09 147.842 310.09 151.553 308.698 153.988C305.972 158.608 299.513 163.73 298.604 163.73L298.612 164.534Z" fill="#263238"/>
<path d="M147.286 169.162L166.066 241.636L175.046 174.829L172.189 154.589L150.143 153.777L147.286 169.162Z" fill="#4159E9"/>
<path d="M166.197 243.755L175.464 174.829V174.772L172.558 154.2L149.816 153.388L146.853 169.178L166.197 243.755ZM174.638 174.837L165.935 239.509L147.672 169.146L150.455 154.2L171.797 155.011L174.638 174.837Z" fill="#263238"/>
<path d="M187.703 59.4482C187.703 59.4482 206.892 55.3889 207.301 52.5637C207.711 49.7384 190.928 45.257 190.928 45.257C190.928 45.257 202.389 41.6117 194.203 37.1384C186.017 32.6651 150.52 30.6436 133.787 40.7836C117.054 50.9237 117.865 75.6041 117.865 83.2924C117.865 90.9807 126.051 103.946 128.507 106.779C130.963 109.613 140.787 112.462 140.787 112.462C140.787 112.462 150.61 111.651 154.262 102.72C157.913 93.7897 155.08 74.3782 155.08 74.3782C155.08 74.3782 170.184 72.3567 176.717 68.3055C183.25 64.2544 185.722 60.187 185.722 60.187L187.703 59.4482Z" fill="#263238"/>
<path d="M140.713 112.892H140.786C140.893 112.892 150.88 111.95 154.605 102.922C158.035 94.6172 155.907 77.6819 155.506 74.7754C158.011 74.4101 170.888 72.4211 176.897 68.7028C182.905 64.9845 185.476 61.2986 185.902 60.5842L187.793 59.8373C191.116 59.131 207.244 55.575 207.669 52.6199C208.062 49.9002 196.683 46.4498 192.262 45.2239C194.088 44.477 197.33 42.8695 197.543 40.7018C197.674 39.3379 196.618 38.039 194.399 36.8293C186.327 32.429 150.365 30.3345 133.566 40.4745C117.324 50.3061 117.414 73.5576 117.447 82.3094V83.3324C117.447 91.1506 125.633 104.197 128.155 107.079C130.676 109.961 140.197 112.762 140.598 112.876L140.713 112.892ZM169.267 33.9472C180.4 33.9472 190.281 35.4897 194.039 37.5356C195.938 38.5748 196.855 39.614 196.757 40.6288C196.56 42.6422 192.426 44.3877 190.846 44.891L189.52 45.3132L190.863 45.6704C198.918 47.8137 207.121 50.9556 206.892 52.5062C206.638 54.268 195.431 57.3774 187.621 59.0498H187.547L185.386 59.9104L185.312 60.024C185.312 60.0646 182.856 64.0833 176.463 67.9883C170.069 71.8933 155.178 73.9798 154.99 74.0042L154.581 74.0529L154.638 74.4588C154.638 74.6537 157.438 93.8865 153.819 102.59C150.446 110.757 141.654 111.95 140.762 112.048C139.845 111.78 131.02 109.109 128.785 106.527C126.329 103.694 118.274 90.9151 118.274 83.308V82.277C118.274 73.6551 118.151 50.7364 134.008 41.1484C142.759 35.8794 156.807 33.9472 169.267 33.9472Z" fill="#263238"/>
<path d="M187.703 59.4482C187.703 59.4482 210.158 95.4784 210.568 104.79C210.977 114.102 211.386 128.61 208.93 129.487C200.838 132.405 192.163 133.376 183.618 132.32L177.887 147.299C177.887 147.299 177.069 174.025 175.03 174.829C172.992 175.633 166.459 178.077 159.476 176.047C154.952 174.607 150.773 172.264 147.197 169.162L139.829 143.662C139.829 143.662 142.76 132.32 142.76 128.643V117.748C142.76 117.748 135.392 114.914 132.551 109.629C129.71 104.344 130.095 98.2631 135.007 98.2631C139.919 98.2631 147.671 102.769 147.671 102.769C147.671 102.769 152.583 88.9673 149.71 80.9056C146.836 72.8439 143.586 68.7277 143.586 68.7277C143.586 68.7277 150.136 69.1337 156.243 69.1337C162.35 69.1337 167.704 66.6981 164.814 65.0744C161.924 63.4507 157.446 61.4292 157.446 61.4292L187.703 59.4482Z" fill="#DDE2FF"/>
<path d="M165.215 177.24C168.644 177.197 172.033 176.508 175.202 175.21C177.314 174.398 178.117 153.793 178.313 147.38L183.888 132.766C192.395 133.725 201.01 132.733 209.069 129.868C210.445 129.373 211.91 126.068 210.977 104.773C210.568 95.4615 188.972 60.7059 188.055 59.2365L187.924 59.0254L155.858 61.1768L157.331 61.8425C157.38 61.8425 161.842 63.8803 164.65 65.4715C165.092 65.7232 165.289 65.9668 165.223 66.2103C164.953 67.2251 161.244 68.7595 156.275 68.7595C150.234 68.7595 143.709 68.3617 143.652 68.3536L142.727 68.2968L143.3 69.0112C143.3 69.0112 146.574 73.0705 149.358 81.0429C151.814 88.0898 148.277 99.7156 147.475 102.151C145.748 101.201 139.387 97.8808 135.048 97.8808C134.284 97.8399 133.524 98.0065 132.849 98.3628C132.173 98.719 131.609 99.2513 131.217 99.9023C129.85 102.184 130.259 106.17 132.24 109.815C134.86 114.646 141.032 117.43 142.399 117.999V128.642C142.399 132.198 139.583 143.41 139.551 143.523V143.629V143.734L146.918 169.348L147 169.43C150.623 172.557 154.844 174.929 159.411 176.403C161.295 176.956 163.25 177.238 165.215 177.24ZM183.356 131.889L177.494 147.315C177.11 160.061 176.021 173.716 174.883 174.487C169.529 176.606 164.241 177.02 159.648 175.681C155.243 174.25 151.17 171.958 147.671 168.943L140.385 143.653C140.697 142.419 143.234 132.182 143.234 128.674V117.471L142.972 117.365C142.899 117.365 135.727 114.524 132.977 109.458C131.127 106.048 130.709 102.387 131.937 100.341C132.258 99.8119 132.72 99.3808 133.271 99.0945C133.823 98.8081 134.443 98.6776 135.064 98.717C139.796 98.717 147.442 103.077 147.516 103.117L147.942 103.361L148.105 102.906C148.31 102.338 153.017 88.9098 150.152 80.775C148.784 76.6897 146.877 72.8023 144.479 69.2142C146.468 69.3197 151.527 69.5714 156.292 69.5714C161.056 69.5714 165.575 68.1263 166.033 66.4214C166.124 66.0561 166.132 65.366 165.067 64.7977C163.234 63.7585 160.704 62.5407 159.132 61.8019L187.506 59.9022C189.34 62.8574 209.798 96.1028 210.183 104.838C211.075 125.232 209.708 128.821 208.816 129.137C200.774 131.992 192.168 132.935 183.692 131.889H183.356Z" fill="#263238"/>
<path d="M183.618 132.319L166.983 129.412L177.904 147.297L183.618 132.319Z" fill="#263238"/>
<path d="M177.961 148.224L184.15 131.987L166.14 128.845L177.961 148.224ZM183.028 132.636L177.789 146.381L167.769 129.973L183.028 132.636Z" fill="#263238"/>
<path d="M193.253 105.098L204.026 97.0935H202.807C202.807 97.0935 199.958 97.0367 194.44 93.903C188.922 90.7692 181.113 83.9009 181.039 83.8359L180.49 84.4367C180.564 84.5098 188.341 91.3862 194.031 94.6093C196.419 96.0682 199.028 97.1372 201.759 97.7755L192.754 104.457L193.253 105.098Z" fill="#263238"/>
<path d="M190.355 114.435C191.88 114.484 193.399 114.222 194.817 113.663L194.473 112.925C194.399 112.925 187.588 115.961 177.323 108.914L176.856 109.58C182.562 113.501 187.22 114.435 190.355 114.435Z" fill="#263238"/>
<path d="M179.865 108.03L180.063 108.817L175.163 110.032L174.964 109.244L179.865 108.03Z" fill="#263238"/>
<path d="M162.8 95.4789C166.074 95.4789 168.448 94.667 169.906 93.0433C170.438 92.4335 170.842 91.7243 171.093 90.9575C171.345 90.1907 171.439 89.3817 171.371 88.5781L170.552 88.6837C170.646 90.0771 170.188 91.4518 169.275 92.5156C167.982 93.9689 165.796 94.6995 162.792 94.6995L162.8 95.4789Z" fill="#263238"/>
<path d="M189.062 84.2412C191.256 84.2412 192.836 83.7378 193.777 82.7311C194.106 82.3666 194.35 81.9346 194.492 81.4659C194.633 80.9972 194.669 80.5034 194.596 80.0195L193.777 80.1657C193.822 80.5308 193.785 80.9012 193.669 81.2505C193.553 81.5999 193.361 81.9196 193.106 82.1872C192.124 83.2345 190.11 83.6323 187.286 83.3319L187.196 84.1438C187.816 84.2081 188.439 84.2407 189.062 84.2412Z" fill="#263238"/>
<path d="M167.703 106.006C170.53 106.005 173.293 105.172 175.643 103.613C177.993 102.054 179.824 99.839 180.904 97.2483C181.984 94.6575 182.266 91.8073 181.713 89.0579C181.159 86.3085 179.797 83.7836 177.796 81.8023C175.796 79.821 173.249 78.4724 170.476 77.927C167.703 77.3817 164.829 77.664 162.218 78.7384C159.607 79.8127 157.375 81.6308 155.806 83.9628C154.237 86.2948 153.4 89.0358 153.402 91.8394C153.406 95.5982 154.915 99.2015 157.596 101.858C160.278 104.514 163.913 106.006 167.703 106.006ZM167.703 78.4762C170.368 78.4778 172.973 79.2629 175.187 80.7323C177.402 82.2016 179.128 84.2892 180.147 86.7311C181.165 89.1731 181.431 91.8597 180.91 94.4514C180.389 97.043 179.105 99.4234 177.221 101.291C175.336 103.159 172.935 104.431 170.321 104.946C167.707 105.461 164.999 105.196 162.537 104.185C160.075 103.173 157.971 101.46 156.491 99.2627C155.011 97.0653 154.22 94.482 154.22 91.8394C154.223 88.2945 155.644 84.8956 158.172 82.3897C160.701 79.8839 164.129 78.4762 167.703 78.4762Z" fill="#263238"/>
<path d="M194.031 92.2471C196.657 92.2471 199.224 91.4745 201.407 90.027C203.59 88.5795 205.29 86.5222 206.294 84.1156C207.297 81.709 207.558 79.0613 207.043 76.5076C206.529 73.9539 205.262 71.609 203.402 69.7698C201.543 67.9306 199.176 66.6798 196.599 66.1757C194.023 65.6716 191.354 65.9368 188.93 66.9379C186.505 67.9389 184.435 69.6307 182.981 71.7992C181.527 73.9676 180.754 76.5152 180.761 79.1194C180.774 82.6028 182.177 85.9393 184.664 88.3994C187.15 90.8594 190.518 92.2429 194.031 92.2471ZM194.031 66.7386C196.492 66.7386 198.898 67.462 200.945 68.8175C202.992 70.1729 204.588 72.0995 205.531 74.354C206.475 76.6084 206.723 79.0896 206.245 81.4841C205.767 83.8785 204.585 86.0788 202.847 87.8071C201.109 89.5353 198.893 90.7139 196.48 91.194C194.067 91.6742 191.564 91.4342 189.288 90.5046C187.013 89.575 185.066 87.9973 183.694 85.9709C182.321 83.9445 181.586 81.5603 181.579 79.1194C181.576 77.4954 181.896 75.8866 182.52 74.3852C183.144 72.8838 184.061 71.5191 185.217 70.3692C186.373 69.2193 187.747 68.3068 189.259 67.6839C190.772 67.0609 192.393 66.7397 194.031 66.7386Z" fill="#263238"/>
<path d="M180.602 80.1224L180.935 80.8643L177.261 82.483L176.929 81.7412L180.602 80.1224Z" fill="#263238"/>
<path d="M154.09 94.2946L154.315 95.0752L140.029 99.1244L139.804 98.3438L154.09 94.2946Z" fill="#263238"/>
<path d="M137.111 114.548C137.497 114.547 137.877 114.46 138.224 114.294C138.571 114.129 138.876 113.888 139.117 113.59L141.802 110.204C142.221 109.678 142.412 109.008 142.333 108.342C142.254 107.676 141.911 107.068 141.381 106.652C140.85 106.237 140.174 106.047 139.502 106.126C138.831 106.204 138.218 106.544 137.799 107.07L135.114 110.448C134.826 110.82 134.649 111.265 134.602 111.731C134.555 112.198 134.64 112.668 134.848 113.09C135.055 113.511 135.377 113.867 135.776 114.117C136.176 114.368 136.638 114.503 137.111 114.507V114.548Z" fill="#4159E9"/>
<path d="M137.111 114.955C137.559 114.957 138.001 114.857 138.404 114.663C138.808 114.468 139.16 114.185 139.436 113.835L142.129 110.457C142.615 109.846 142.836 109.068 142.744 108.294C142.652 107.521 142.254 106.816 141.638 106.333C141.02 105.855 140.238 105.636 139.46 105.724C139.073 105.767 138.699 105.886 138.358 106.074C138.018 106.263 137.719 106.516 137.479 106.82L134.794 110.197C134.447 110.629 134.23 111.149 134.168 111.698C134.106 112.247 134.202 112.802 134.444 113.299C134.686 113.796 135.065 114.215 135.537 114.508C136.008 114.801 136.554 114.956 137.111 114.955ZM139.804 106.52C140.329 106.52 140.835 106.711 141.227 107.057C141.62 107.402 141.87 107.878 141.932 108.395C141.967 108.672 141.944 108.952 141.867 109.22C141.79 109.488 141.659 109.737 141.482 109.954L138.797 113.339C138.436 113.769 137.922 114.045 137.361 114.11C136.8 114.175 136.236 114.024 135.785 113.688C135.342 113.336 135.057 112.825 134.991 112.266C134.925 111.707 135.084 111.145 135.432 110.701L138.126 107.323C138.298 107.102 138.512 106.916 138.756 106.776C139.001 106.637 139.271 106.547 139.55 106.512L139.804 106.52Z" fill="#263238"/>
<path d="M133.656 113.639L135.776 110.976C135.908 110.785 136.078 110.624 136.276 110.501C136.473 110.379 136.694 110.298 136.924 110.263C137.155 110.229 137.39 110.241 137.615 110.3C137.84 110.359 138.05 110.464 138.233 110.607C138.416 110.75 138.568 110.928 138.678 111.132C138.789 111.335 138.856 111.559 138.876 111.789C138.896 112.019 138.868 112.251 138.794 112.47C138.72 112.689 138.601 112.89 138.445 113.062L136.325 115.725C136.077 116.037 135.931 116.416 135.906 116.812C135.881 117.208 135.978 117.602 136.186 117.941C139.829 123.917 152.477 144.197 162.284 154.272C172.877 165.151 179.172 171.11 182.103 171.475C185.189 171.865 197.706 166.88 198.918 164.826C198.992 162.391 194.784 145.139 191.73 133.521C191.63 133.309 191.558 133.086 191.518 132.855C192.754 132.855 193.908 132.677 194.907 132.62C196.773 139.724 202.717 162.35 202.274 165.378C201.652 169.73 186.254 174.844 182.103 174.844C181.961 174.854 181.819 174.854 181.677 174.844C177.642 174.349 171.936 169.072 159.828 156.635C149.775 146.308 136.955 125.784 133.263 119.711C132.7 118.779 132.436 117.699 132.506 116.614C132.576 115.53 132.977 114.492 133.656 113.639Z" fill="#8F8F8F"/>
<path d="M182.111 175.251C186.049 175.251 202.012 170.144 202.692 165.436C202.994 163.341 200.571 152.576 195.324 132.515L195.234 132.198H194.898C194.53 132.198 194.129 132.255 193.719 132.296C193.015 132.361 192.295 132.434 191.534 132.434H191.157V132.799C191.159 133.016 191.212 133.231 191.312 133.424C191.34 133.481 191.362 133.541 191.378 133.603C194.333 144.952 198.426 161.928 198.508 164.705C197.067 166.686 184.968 171.427 182.135 171.078C179.303 170.729 172.844 164.583 162.562 154.029C152.738 143.978 140.156 123.739 136.521 117.771C136.355 117.503 136.278 117.191 136.298 116.877C136.319 116.563 136.437 116.263 136.636 116.018L138.756 113.355C139.099 112.918 139.255 112.364 139.189 111.814C139.124 111.263 138.841 110.761 138.404 110.416C137.962 110.077 137.404 109.92 136.848 109.978C136.571 110.014 136.304 110.104 136.062 110.244C135.821 110.383 135.609 110.569 135.44 110.79L133.32 113.452C132.598 114.367 132.172 115.477 132.099 116.637C132.026 117.796 132.309 118.95 132.911 119.947C136.603 126.004 149.447 146.592 159.525 156.944C171.706 169.454 177.461 174.764 181.628 175.275C181.786 175.285 181.945 175.285 182.103 175.275L182.111 175.251ZM194.595 133.034C199.712 152.519 202.159 163.365 201.881 165.314C201.308 169.259 186.261 174.431 182.111 174.431C181.986 174.44 181.86 174.44 181.734 174.431C177.829 173.944 172.164 168.699 160.13 156.343C150.11 146.048 137.307 125.492 133.623 119.485C133.105 118.627 132.861 117.634 132.926 116.636C132.99 115.638 133.359 114.684 133.983 113.899L136.103 111.236C136.304 110.978 136.597 110.806 136.922 110.757C137.09 110.736 137.261 110.748 137.425 110.794C137.588 110.84 137.74 110.919 137.872 111.025C138.005 111.129 138.116 111.257 138.199 111.404C138.281 111.55 138.334 111.712 138.354 111.878C138.374 112.045 138.36 112.214 138.314 112.375C138.268 112.537 138.19 112.688 138.084 112.819L135.964 115.482C135.662 115.857 135.483 116.315 135.452 116.795C135.421 117.274 135.54 117.751 135.792 118.161C139.443 124.145 152.1 144.449 161.989 154.557C172.885 165.744 178.984 171.5 182.054 171.882C185.279 172.279 197.968 167.23 199.245 165.03L199.302 164.94V164.835C199.376 162.196 194.923 144.165 192.098 133.416C192.098 133.367 192.098 133.31 192.041 133.254C192.647 133.254 193.228 133.172 193.76 133.124L194.595 133.034Z" fill="#263238"/>
<path d="M152.583 85.8417C152.8 85.8417 153.009 85.7562 153.162 85.6039C153.316 85.4517 153.402 85.2452 153.402 85.0299C153.402 77.0412 160.77 76.5785 161.13 76.5622C161.237 76.5569 161.343 76.5306 161.44 76.4849C161.537 76.4392 161.625 76.3749 161.697 76.2957C161.769 76.2166 161.825 76.1241 161.861 76.0235C161.897 75.923 161.913 75.8164 161.908 75.7098C161.902 75.6032 161.876 75.4986 161.83 75.4022C161.784 75.3057 161.719 75.2192 161.639 75.1476C161.559 75.076 161.466 75.0206 161.364 74.9848C161.263 74.9489 161.156 74.9332 161.048 74.9385C160.95 74.9385 151.765 75.5149 151.765 85.0299C151.765 85.2452 151.851 85.4517 152.004 85.6039C152.158 85.7562 152.366 85.8417 152.583 85.8417Z" fill="#263238"/>
<path d="M180.196 69.8153C180.35 69.8148 180.501 69.7712 180.632 69.6893C180.762 69.6074 180.866 69.4907 180.933 69.3525C181.039 69.1414 183.339 64.4814 189.397 65.5855C189.505 65.6052 189.615 65.6038 189.722 65.5812C189.829 65.5586 189.93 65.5154 190.021 65.4539C190.111 65.3925 190.188 65.3141 190.247 65.2231C190.307 65.1321 190.348 65.0305 190.367 64.9238C190.387 64.8172 190.386 64.7078 190.363 64.6017C190.34 64.4957 190.297 64.3951 190.235 64.3058C190.173 64.2165 190.094 64.1401 190.002 64.0811C189.91 64.022 189.808 63.9815 189.7 63.9618C187.712 63.5104 185.629 63.7234 183.775 64.5677C181.922 65.4119 180.401 66.8401 179.451 68.63C179.405 68.7269 179.38 68.8319 179.375 68.9387C179.371 69.0455 179.388 69.1522 179.425 69.2525C179.463 69.3528 179.519 69.4449 179.593 69.5233C179.666 69.6018 179.754 69.6651 179.852 69.7097C179.957 69.7698 180.075 69.8058 180.196 69.8153Z" fill="#263238"/>
<path d="M151.371 214.098C151.371 214.098 169.332 210.039 173.008 210.039C176.683 210.039 184.027 215.3 188.112 219.781C192.197 224.263 197.935 228.712 200.391 228.712C202.847 228.712 214.267 229.921 218.352 231.959C222.437 233.997 226.539 244.949 226.539 246.126C226.539 247.303 225.319 249.373 223.264 247.75C221.209 246.126 215.078 237.196 215.078 237.196L208.529 236.384C208.529 236.384 213.44 240.841 214.259 244.08C215.078 247.319 218.352 251.387 216.715 253.822C215.078 256.258 210.984 251.387 210.591 249.365C210.199 247.344 205.68 242.059 205.68 242.059L199.949 237.188L203.944 246.426C204.197 246.995 204.22 247.638 204.01 248.224C203.8 248.81 203.372 249.293 202.814 249.576L196.265 252.978L189.716 248.919C189.716 248.919 183.593 248.107 181.964 246.085C180.335 244.064 180.326 240.825 180.326 240.825C180.326 240.825 181.145 240.013 179.508 238.389C177.87 236.765 171.321 226.641 171.321 226.641L153.36 230.701L151.371 214.098Z" fill="#DDE2FF"/>
<path d="M215.521 254.853C215.821 254.857 216.117 254.784 216.38 254.642C216.644 254.5 216.866 254.293 217.027 254.042C218.247 252.239 217.092 249.755 215.971 247.352C215.43 246.277 214.984 245.158 214.637 244.007C214.006 241.523 211.165 238.438 209.725 236.96L214.858 237.601C215.676 238.819 221.055 246.532 222.995 248.066C223.312 248.392 223.721 248.615 224.168 248.705C224.616 248.795 225.08 248.747 225.5 248.57C225.93 248.321 226.288 247.966 226.538 247.539C226.787 247.112 226.921 246.628 226.924 246.134C226.924 244.705 222.831 233.713 218.541 231.602C214.252 229.491 202.856 228.354 200.392 228.354C198.28 228.354 192.803 224.295 188.448 219.578C184.093 214.861 176.799 209.73 173.041 209.73C169.284 209.73 152.052 213.619 151.315 213.79L150.955 213.871L153.091 231.277L171.216 227.218C172.239 228.801 177.765 237.277 179.279 238.787C180.311 239.81 180.262 240.41 180.098 240.654L180 240.768V240.93C180 241.068 180 244.332 181.727 246.443C183.455 248.553 188.858 249.3 189.66 249.414L196.315 253.538L203.061 250.039C203.702 249.7 204.193 249.136 204.437 248.458C204.681 247.779 204.66 247.034 204.379 246.37L201.104 238.73L205.484 242.448C206.663 243.845 209.929 247.936 210.249 249.511C210.568 251.086 213.155 254.512 215.16 254.91C215.282 254.902 215.403 254.883 215.521 254.853ZM207.334 235.807L208.251 236.668C208.251 236.717 213.065 241.076 213.842 244.161C214.199 245.363 214.662 246.531 215.226 247.652C216.249 249.852 217.313 252.126 216.348 253.554C216.243 253.74 216.08 253.886 215.882 253.968C215.685 254.05 215.465 254.065 215.259 254.009C213.572 253.676 211.256 250.672 210.969 249.243C210.543 247.141 206.164 241.994 205.975 241.774L198.878 235.734L203.569 246.581C203.773 247.056 203.789 247.591 203.615 248.078C203.44 248.565 203.088 248.969 202.627 249.211L196.291 252.499L189.799 248.521C189.742 248.521 183.823 247.709 182.308 245.834C180.966 244.161 180.794 241.547 180.769 240.963C180.999 240.597 181.334 239.615 179.828 238.121C178.322 236.627 171.781 226.552 171.715 226.447L171.56 226.211L153.762 230.222L151.822 214.431C154.376 213.863 169.71 210.477 173.009 210.477C176.447 210.477 183.651 215.535 187.81 220.057C191.968 224.579 197.691 229.101 200.359 229.101C202.709 229.101 214.113 230.303 218.14 232.292C222.037 234.232 226.073 245.006 226.073 246.093C226.072 246.436 225.984 246.773 225.816 247.072C225.649 247.372 225.408 247.624 225.115 247.806C224.831 247.906 224.525 247.919 224.233 247.845C223.942 247.772 223.679 247.614 223.478 247.392C221.505 245.834 215.455 237.049 215.39 236.96L215.291 236.806L207.334 235.807Z" fill="#263238"/>
<path d="M189.02 249.089C191.1 248.585 197.886 246.791 197.886 244.761C197.886 242.732 193.326 236.545 192.802 235.831L192.139 236.31C194.12 239.014 197.051 243.495 197.051 244.761C197.051 245.719 192.778 247.343 188.816 248.301L189.02 249.089Z" fill="#263238"/>
<path d="M185.436 243.244L185.722 242.48C184.163 241.781 182.769 240.766 181.629 239.501L181.015 240.037C182.239 241.408 183.747 242.502 185.436 243.244Z" fill="#263238"/>
<path d="M167.441 227.397L165.452 213.067L160.352 213.343L162.906 228.525L167.441 227.397Z" fill="#263238"/>
<path d="M162.57 229.028L167.892 227.688L165.812 212.62L159.877 212.953L162.57 229.028ZM166.983 227.095L163.234 228.021L160.835 213.724L165.1 213.489L166.983 227.095Z" fill="#263238"/>
<path d="M155.907 214.74C156.34 217.346 159.754 218.962 163.545 218.345C167.335 217.728 170.045 215.098 169.611 212.508C169.177 209.918 165.763 208.294 161.981 208.911C158.199 209.528 155.481 212.142 155.907 214.74Z" fill="#DDE2FF"/>
<path d="M161.932 218.879C162.494 218.877 163.055 218.831 163.61 218.741C165.417 218.48 167.103 217.685 168.448 216.46C169.044 215.99 169.503 215.37 169.776 214.665C170.05 213.96 170.129 213.196 170.004 212.451C169.88 211.706 169.557 211.007 169.069 210.427C168.581 209.848 167.945 209.408 167.228 209.153C165.554 208.447 163.713 208.225 161.917 208.513C160.121 208.8 158.443 209.585 157.077 210.777C156.481 211.246 156.022 211.865 155.748 212.57C155.474 213.274 155.395 214.038 155.518 214.783C155.642 215.528 155.964 216.227 156.451 216.807C156.938 217.387 157.572 217.828 158.289 218.083C159.429 218.612 160.673 218.883 161.932 218.879ZM163.569 209.186C164.698 209.174 165.815 209.406 166.844 209.867C167.445 210.065 167.98 210.422 168.391 210.899C168.803 211.376 169.074 211.956 169.177 212.576C169.28 213.196 169.21 213.831 168.975 214.414C168.74 214.997 168.348 215.505 167.842 215.883C166.6 216.966 165.075 217.681 163.442 217.947C161.81 218.212 160.135 218.018 158.608 217.385C158.025 217.158 157.508 216.792 157.102 216.319C156.697 215.846 156.415 215.281 156.283 214.674C156.215 214.057 156.301 213.432 156.534 212.856C156.767 212.28 157.139 211.769 157.618 211.369C158.842 210.264 160.374 209.548 162.014 209.315C162.536 209.227 163.064 209.183 163.594 209.186H163.569Z" fill="#263238"/>
<path d="M104.014 173.619C104.014 173.619 112.585 185.358 112.585 197.909C112.585 210.461 102.384 224.222 102.384 224.222L151.765 209.243L159.951 236.773C159.951 236.773 117.906 254.585 93.8214 261.064C69.737 267.542 66.0614 270.806 57.482 262.687C48.9027 254.569 61.1577 231.106 62.795 228.273C64.4323 225.439 82.7944 172.401 85.2421 163.495C87.6898 154.589 89.7364 151.755 93.4285 152.129C97.1206 152.502 103.252 152.941 103.252 152.941" fill="#DDE2FF"/>
<path d="M67.5673 267.891C71.2839 267.891 75.9419 266.552 83.2196 264.457C86.2977 263.572 89.7688 262.566 93.9193 261.453C117.75 255.048 159.681 237.325 160.106 237.146L160.442 237.008L160.335 236.659L152.051 208.74L103.391 223.491C105.683 220.114 112.994 208.529 112.994 197.909C112.994 185.374 104.431 173.497 104.349 173.375L103.686 173.854C103.768 173.968 112.175 185.642 112.175 197.909C112.175 210.177 102.155 223.848 102.048 223.986L101.32 224.969L151.502 209.754L159.443 236.546C155.424 238.242 116.35 254.585 93.6982 260.682C89.605 261.794 86.0767 262.801 82.9904 263.686C68.2058 267.94 64.6938 268.947 57.7599 262.395C48.9759 254.106 62.991 228.736 63.1384 228.484C64.7757 225.594 83.0886 172.847 85.6346 163.609C88.0005 154.979 89.9652 152.194 93.3544 152.567C96.9974 152.973 103.113 153.379 103.178 153.379L103.235 152.567C103.17 152.567 97.0792 152.153 93.4117 151.755C89.4986 151.325 87.321 154.256 84.8078 163.389C82.401 172.149 63.9652 225.342 62.3934 228.07C62.2461 228.33 47.7807 254.122 57.1623 262.98C60.8953 266.463 63.7278 267.891 67.5673 267.891Z" fill="#263238"/>
<path d="M77.207 228.175L77.3481 228.975L69.8085 230.284L69.6674 229.484L77.207 228.175Z" fill="#263238"/>
<path d="M102.282 223.851L102.423 224.65L82.4005 228.127L82.2594 227.327L102.282 223.851Z" fill="#263238"/>
</svg>
