<svg width="132" height="16" viewBox="0 0 132 16" fill="none" xmlns="http://www.w3.org/2000/svg">
<path d="M0.4 15V0.599999H2.84L9.52 10.75V0.599999H11.96V15H9.52L2.84 4.85V15H0.4ZM19.6655 15.3C18.5721 15.3 17.6121 15.0633 16.7855 14.59C15.9588 14.1167 15.3121 13.46 14.8455 12.62C14.3855 11.78 14.1555 10.8133 14.1555 9.72C14.1555 8.54 14.3821 7.51667 14.8355 6.65C15.2888 5.77667 15.9188 5.1 16.7255 4.62C17.5321 4.14 18.4655 3.9 19.5255 3.9C20.6455 3.9 21.5955 4.16333 22.3755 4.69C23.1621 5.21 23.7455 5.94667 24.1255 6.9C24.5055 7.85333 24.6488 8.97667 24.5555 10.27H22.1655V9.39C22.1588 8.21667 21.9521 7.36 21.5455 6.82C21.1388 6.28 20.4988 6.01 19.6255 6.01C18.6388 6.01 17.9055 6.31667 17.4255 6.93C16.9455 7.53667 16.7055 8.42667 16.7055 9.6C16.7055 10.6933 16.9455 11.54 17.4255 12.14C17.9055 12.74 18.6055 13.04 19.5255 13.04C20.1188 13.04 20.6288 12.91 21.0555 12.65C21.4888 12.3833 21.8221 12 22.0555 11.5L24.4355 12.22C24.0221 13.1933 23.3821 13.95 22.5155 14.49C21.6555 15.03 20.7055 15.3 19.6655 15.3ZM15.9455 10.27V8.45H23.3755V10.27H15.9455ZM31.6967 15.3C30.6034 15.3 29.6434 15.0633 28.8167 14.59C27.9901 14.1167 27.3434 13.46 26.8767 12.62C26.4167 11.78 26.1867 10.8133 26.1867 9.72C26.1867 8.54 26.4134 7.51667 26.8667 6.65C27.3201 5.77667 27.9501 5.1 28.7567 4.62C29.5634 4.14 30.4967 3.9 31.5567 3.9C32.6767 3.9 33.6267 4.16333 34.4067 4.69C35.1934 5.21 35.7767 5.94667 36.1567 6.9C36.5367 7.85333 36.6801 8.97667 36.5867 10.27H34.1967V9.39C34.1901 8.21667 33.9834 7.36 33.5767 6.82C33.1701 6.28 32.5301 6.01 31.6567 6.01C30.6701 6.01 29.9367 6.31667 29.4567 6.93C28.9767 7.53667 28.7367 8.42667 28.7367 9.6C28.7367 10.6933 28.9767 11.54 29.4567 12.14C29.9367 12.74 30.6367 13.04 31.5567 13.04C32.1501 13.04 32.6601 12.91 33.0867 12.65C33.5201 12.3833 33.8534 12 34.0867 11.5L36.4667 12.22C36.0534 13.1933 35.4134 13.95 34.5467 14.49C33.6867 15.03 32.7367 15.3 31.6967 15.3ZM27.9767 10.27V8.45H35.4067V10.27H27.9767ZM46.288 15V9.8C46.288 9.46 46.2646 9.08333 46.218 8.67C46.1713 8.25667 46.0613 7.86 45.888 7.48C45.7213 7.09333 45.468 6.77667 45.128 6.53C44.7946 6.28333 44.3413 6.16 43.768 6.16C43.4613 6.16 43.158 6.21 42.858 6.31C42.558 6.41 42.2846 6.58333 42.038 6.83C41.798 7.07 41.6046 7.40333 41.458 7.83C41.3113 8.25 41.238 8.79 41.238 9.45L39.808 8.84C39.808 7.92 39.9846 7.08667 40.338 6.34C40.698 5.59333 41.2246 5 41.918 4.56C42.6113 4.11333 43.4646 3.89 44.478 3.89C45.278 3.89 45.938 4.02333 46.458 4.29C46.978 4.55667 47.3913 4.89667 47.698 5.31C48.0046 5.72333 48.2313 6.16333 48.378 6.63C48.5246 7.09667 48.618 7.54 48.658 7.96C48.7046 8.37333 48.728 8.71 48.728 8.97V15H46.288ZM38.798 15V0.599999H40.948V8.18H41.238V15H38.798ZM54.3575 15.3C53.5775 15.3 52.9175 15.1533 52.3775 14.86C51.8375 14.56 51.4275 14.1633 51.1475 13.67C50.8742 13.1767 50.7375 12.6333 50.7375 12.04C50.7375 11.52 50.8242 11.0533 50.9975 10.64C51.1708 10.22 51.4375 9.86 51.7975 9.56C52.1575 9.25333 52.6242 9.00333 53.1975 8.81C53.6308 8.67 54.1375 8.54333 54.7175 8.43C55.3042 8.31667 55.9375 8.21333 56.6175 8.12C57.3042 8.02 58.0208 7.91333 58.7675 7.8L57.9075 8.29C57.9142 7.54333 57.7475 6.99333 57.4075 6.64C57.0675 6.28667 56.4942 6.11 55.6875 6.11C55.2008 6.11 54.7308 6.22333 54.2775 6.45C53.8242 6.67667 53.5075 7.06667 53.3275 7.62L51.1275 6.93C51.3942 6.01667 51.9008 5.28333 52.6475 4.73C53.4008 4.17667 54.4142 3.9 55.6875 3.9C56.6475 3.9 57.4908 4.05667 58.2175 4.37C58.9508 4.68333 59.4942 5.19667 59.8475 5.91C60.0408 6.29 60.1575 6.68 60.1975 7.08C60.2375 7.47333 60.2575 7.90333 60.2575 8.37V15H58.1475V12.66L58.4975 13.04C58.0108 13.82 57.4408 14.3933 56.7875 14.76C56.1408 15.12 55.3308 15.3 54.3575 15.3ZM54.8375 13.38C55.3842 13.38 55.8508 13.2833 56.2375 13.09C56.6242 12.8967 56.9308 12.66 57.1575 12.38C57.3908 12.1 57.5475 11.8367 57.6275 11.59C57.7542 11.2833 57.8242 10.9333 57.8375 10.54C57.8575 10.14 57.8675 9.81667 57.8675 9.57L58.6075 9.79C57.8808 9.90333 57.2575 10.0033 56.7375 10.09C56.2175 10.1767 55.7708 10.26 55.3975 10.34C55.0242 10.4133 54.6942 10.4967 54.4075 10.59C54.1275 10.69 53.8908 10.8067 53.6975 10.94C53.5042 11.0733 53.3542 11.2267 53.2475 11.4C53.1475 11.5733 53.0975 11.7767 53.0975 12.01C53.0975 12.2767 53.1642 12.5133 53.2975 12.72C53.4308 12.92 53.6242 13.08 53.8775 13.2C54.1375 13.32 54.4575 13.38 54.8375 13.38ZM62.8609 15V4.2H64.9909V6.83L64.7309 6.49C64.8643 6.13 65.0409 5.80333 65.2609 5.51C65.4876 5.21 65.7576 4.96333 66.0709 4.77C66.3376 4.59 66.6309 4.45 66.9509 4.35C67.2776 4.24333 67.6109 4.18 67.9509 4.16C68.2909 4.13333 68.6209 4.14667 68.9409 4.2V6.45C68.6209 6.35667 68.2509 6.32667 67.8309 6.36C67.4176 6.39333 67.0443 6.51 66.7109 6.71C66.3776 6.89 66.1043 7.12 65.8909 7.4C65.6843 7.68 65.5309 8 65.4309 8.36C65.3309 8.71333 65.2809 9.09667 65.2809 9.51V15H62.8609ZM74.8531 15V0.599999H77.2931L83.9731 10.75V0.599999H86.4131V15H83.9731L77.2931 4.85V15H74.8531ZM94.1186 15.3C93.0253 15.3 92.0653 15.0633 91.2386 14.59C90.4119 14.1167 89.7653 13.46 89.2986 12.62C88.8386 11.78 88.6086 10.8133 88.6086 9.72C88.6086 8.54 88.8353 7.51667 89.2886 6.65C89.7419 5.77667 90.3719 5.1 91.1786 4.62C91.9853 4.14 92.9186 3.9 93.9786 3.9C95.0986 3.9 96.0486 4.16333 96.8286 4.69C97.6153 5.21 98.1986 5.94667 98.5786 6.9C98.9586 7.85333 99.1019 8.97667 99.0086 10.27H96.6186V9.39C96.6119 8.21667 96.4053 7.36 95.9986 6.82C95.5919 6.28 94.9519 6.01 94.0786 6.01C93.0919 6.01 92.3586 6.31667 91.8786 6.93C91.3986 7.53667 91.1586 8.42667 91.1586 9.6C91.1586 10.6933 91.3986 11.54 91.8786 12.14C92.3586 12.74 93.0586 13.04 93.9786 13.04C94.5719 13.04 95.0819 12.91 95.5086 12.65C95.9419 12.3833 96.2753 12 96.5086 11.5L98.8886 12.22C98.4753 13.1933 97.8353 13.95 96.9686 14.49C96.1086 15.03 95.1586 15.3 94.1186 15.3ZM90.3986 10.27V8.45H97.8286V10.27H90.3986ZM105.29 15.31C104.49 15.31 103.83 15.1767 103.31 14.91C102.79 14.6433 102.377 14.3033 102.07 13.89C101.763 13.4767 101.537 13.0367 101.39 12.57C101.243 12.1033 101.147 11.6633 101.1 11.25C101.06 10.83 101.04 10.49 101.04 10.23V4.2H103.48V9.4C103.48 9.73333 103.503 10.11 103.55 10.53C103.597 10.9433 103.703 11.3433 103.87 11.73C104.043 12.11 104.297 12.4233 104.63 12.67C104.97 12.9167 105.427 13.04 106 13.04C106.307 13.04 106.61 12.99 106.91 12.89C107.21 12.79 107.48 12.62 107.72 12.38C107.967 12.1333 108.163 11.7967 108.31 11.37C108.457 10.9433 108.53 10.4033 108.53 9.75L109.96 10.36C109.96 11.28 109.78 12.1133 109.42 12.86C109.067 13.6067 108.543 14.2033 107.85 14.65C107.157 15.09 106.303 15.31 105.29 15.31ZM108.82 15V11.65H108.53V4.2H110.95V15H108.82ZM113.759 15V4.2H115.889V6.83L115.629 6.49C115.763 6.13 115.939 5.80333 116.159 5.51C116.386 5.21 116.656 4.96333 116.969 4.77C117.236 4.59 117.529 4.45 117.849 4.35C118.176 4.24333 118.509 4.18 118.849 4.16C119.189 4.13333 119.519 4.14667 119.839 4.2V6.45C119.519 6.35667 119.149 6.32667 118.729 6.36C118.316 6.39333 117.943 6.51 117.609 6.71C117.276 6.89 117.003 7.12 116.789 7.4C116.583 7.68 116.429 8 116.329 8.36C116.229 8.71333 116.179 9.09667 116.179 9.51V15H113.759ZM126.322 15.3C125.242 15.3 124.299 15.0567 123.492 14.57C122.686 14.0833 122.059 13.4133 121.612 12.56C121.172 11.7 120.952 10.7133 120.952 9.6C120.952 8.46667 121.179 7.47333 121.632 6.62C122.086 5.76667 122.716 5.1 123.522 4.62C124.329 4.14 125.262 3.9 126.322 3.9C127.409 3.9 128.356 4.14333 129.162 4.63C129.969 5.11667 130.596 5.79 131.042 6.65C131.489 7.50333 131.712 8.48667 131.712 9.6C131.712 10.72 131.486 11.71 131.032 12.57C130.586 13.4233 129.959 14.0933 129.152 14.58C128.346 15.06 127.402 15.3 126.322 15.3ZM126.322 13.04C127.282 13.04 127.996 12.72 128.462 12.08C128.929 11.44 129.162 10.6133 129.162 9.6C129.162 8.55333 128.926 7.72 128.452 7.1C127.979 6.47333 127.269 6.16 126.322 6.16C125.676 6.16 125.142 6.30667 124.722 6.6C124.309 6.88667 124.002 7.29 123.802 7.81C123.602 8.32333 123.502 8.92 123.502 9.6C123.502 10.6467 123.739 11.4833 124.212 12.11C124.692 12.73 125.396 13.04 126.322 13.04Z" fill="#4159E9"/>
</svg>
